<svg width="559" height="496" viewBox="0 0 559 496" fill="none" xmlns="http://www.w3.org/2000/svg">
<circle cx="250" cy="483.594" r="11" fill="#FFE3AA"/>
<circle cx="282" cy="484.594" r="11" fill="#E3E1E1"/>
<circle cx="314" cy="484.594" r="11" fill="#E3E1E1"/>
<path d="M77.5897 371.994C10.6201 327.029 -31.4533 229.756 29.5472 181.965C90.5476 134.175 -27.5983 69.1496 165.406 17.6009C302.321 -18.975 330.535 82.1411 402.865 73.0651C492.037 61.8766 550.392 139.816 546.847 233.706C543.911 311.512 510.08 372.594 510.08 372.594L77.5897 371.994Z" fill="#FFEABE"/>
<path d="M169.126 332.359C171.675 332.359 173.741 330.293 173.741 327.745C173.741 325.196 171.675 323.13 169.126 323.13C166.578 323.13 164.512 325.196 164.512 327.745C164.512 330.293 166.578 332.359 169.126 332.359Z" fill="white"/>
<path opacity="0.5" d="M410.183 95.2174H214.078C207.347 95.2174 201.869 99.7752 201.869 105.399V179.609C197.149 181.489 192.314 183.573 189.059 184.948C181.888 187.992 159.034 193.478 155.632 198.516C152.23 203.554 149.618 205.662 148.918 217.984C148.267 229.582 147.225 261.69 142.13 283.323L136.815 280.702L131.606 291.283L130.614 293.285L126.975 291.486L97 352.186V355.051H187.431L200.819 327.94L196.115 325.62L198.15 321.502L202.317 313.062L195.806 309.864C201.658 302.767 207.713 295.515 214.362 286.033C218.261 280.474 220.54 265.645 220.54 265.645C220.54 265.645 223.209 271.814 228.353 268.396C233.497 264.978 234.636 255.879 234.636 255.879C234.636 255.879 241.579 259.329 244.199 254.21C246.82 249.091 246.031 235.8 246.031 235.8C246.031 235.8 250.955 231.153 255.944 225.773H410.183C416.914 225.773 422.392 221.215 422.392 215.591V105.399C422.359 99.7752 416.947 95.2174 410.183 95.2174Z" fill="#D5D5D5"/>
<path fill-rule="evenodd" clip-rule="evenodd" d="M182.197 298.998C188.505 291.315 195.016 283.656 202.227 273.377C206.125 267.818 208.404 252.989 208.404 252.989C208.404 252.989 211.074 259.158 216.218 255.74C221.361 252.322 222.501 243.223 222.501 243.223C222.501 243.223 229.443 246.673 232.064 241.554C234.685 236.435 233.895 223.144 233.895 223.144C233.895 223.144 241.155 216.291 246.966 209.609C249.208 207.073 251.259 204.374 253.103 201.535C253.746 200.607 254.356 199.688 254.918 198.76C256.358 198.361 263.244 196.253 262.699 192.062C262.43 189.994 260.574 187.992 258.206 186.12C257.686 184.491 256.667 183.068 255.292 182.051C253.857 180.966 252.084 180.424 250.287 180.521C249.807 180.171 249.359 179.821 248.944 179.471C244.565 175.817 236.736 171.951 227.124 169.484C217.512 167.018 208.152 161.077 203.602 162.013C199.053 162.949 184.069 169.281 176.891 172.325C169.712 175.369 146.858 180.83 143.481 185.868C140.103 190.906 137.466 193.014 136.766 205.336C136.066 217.658 134.943 253.16 128.969 274.622C127.439 280.018 182.197 298.998 182.197 298.998Z" fill="#E2A379"/>
<g opacity="0.4">
<path fill-rule="evenodd" clip-rule="evenodd" d="M234.751 172.089C235.516 172.284 236.265 172.496 237.005 172.707C233.783 171.401 230.477 170.313 227.108 169.452L226.498 169.281C229.187 170.39 231.944 171.328 234.751 172.089Z" fill="#C48B65"/>
<path fill-rule="evenodd" clip-rule="evenodd" d="M216.12 255.797L216.039 255.618V255.87L216.12 255.797Z" fill="#C48B65"/>
<path fill-rule="evenodd" clip-rule="evenodd" d="M136.58 277.259C142.554 255.797 143.685 220.287 144.377 207.973C145.069 195.659 147.681 193.543 151.091 188.505C154.502 183.467 177.355 177.981 184.518 174.937C191.68 171.894 206.68 165.561 211.229 164.626C212.207 164.471 213.205 164.51 214.168 164.739C209.756 162.925 206.029 161.484 203.587 161.997C199.029 162.933 184.054 169.265 176.875 172.309C169.697 175.353 146.859 180.83 143.482 185.868C140.104 190.906 137.467 193.014 136.767 205.336C136.067 217.658 134.944 253.16 128.97 274.622C127.464 280.018 182.223 298.998 182.223 298.998L182.279 298.925C167.28 293.488 135.432 281.386 136.58 277.259Z" fill="#C48B65"/>
</g>
<path fill-rule="evenodd" clip-rule="evenodd" d="M184.086 231.901C185.787 227.702 162.315 233.887 176.159 224.161C180.945 220.8 154.347 206.598 161.843 204.832C171.544 202.553 179.439 202.813 176.761 193.038C175.19 187.292 196.84 190.32 200.982 187.887C205.125 185.453 205.931 184.9 211.156 184.102C215.453 183.443 222.55 184.102 225.977 184.012C229.827 183.915 230.046 182.906 234.669 184.208C239.748 185.64 237.363 183.459 219.205 200.119C211.88 206.842 206.851 213.141 202.285 217.007C194.886 223.258 189.702 225.773 184.086 231.901Z" fill="#C48B65"/>
<path d="M410.175 202.927C410.175 208.551 404.722 213.109 397.967 213.109H201.894C195.163 213.109 189.686 208.551 189.686 202.927V92.7757C189.686 87.1518 195.139 82.594 201.894 82.594H397.992C404.722 82.594 410.2 87.1518 410.2 92.7757L410.175 202.927Z" fill="#D3D3D3"/>
<g opacity="0.3">
<mask id="mask0_273_793" style="mask-type:luminance" maskUnits="userSpaceOnUse" x="189" y="82" width="222" height="132">
<path d="M410.175 202.927C410.175 208.551 404.722 213.109 397.967 213.109H201.894C195.163 213.109 189.686 208.551 189.686 202.927V92.7757C189.686 87.1518 195.139 82.594 201.894 82.594H397.992C404.722 82.594 410.2 87.1518 410.2 92.7757L410.175 202.927Z" fill="white"/>
</mask>
<g mask="url(#mask0_273_793)">
<path d="M179.121 85.0356C184.647 85.0356 184.647 88.8528 190.182 88.8528C195.716 88.8528 195.708 85.0356 201.234 85.0356C206.761 85.0356 206.761 88.8528 212.287 88.8528C217.813 88.8528 217.813 85.0356 223.34 85.0356C228.866 85.0356 228.866 88.8528 234.392 88.8528C239.918 88.8528 239.918 85.0356 245.445 85.0356C250.971 85.0356 250.971 88.8528 256.505 88.8528C262.04 88.8528 262.032 85.0356 267.558 85.0356C273.084 85.0356 273.084 88.8528 278.611 88.8528C284.137 88.8528 284.137 85.0356 289.663 85.0356C295.189 85.0356 295.189 88.8528 300.716 88.8528C306.242 88.8528 306.242 85.0356 311.768 85.0356C317.295 85.0356 317.295 88.8528 322.829 88.8528C328.363 88.8528 328.355 85.0356 333.882 85.0356C339.408 85.0356 339.408 88.8528 344.942 88.8528C350.477 88.8528 350.469 85.0356 356.003 85.0356C361.537 85.0356 361.529 88.8528 367.064 88.8528C372.598 88.8528 372.59 85.0356 378.116 85.0356C383.643 85.0356 383.643 88.8528 389.177 88.8528C394.711 88.8528 394.703 85.0356 400.238 85.0356C405.772 85.0356 405.764 88.8528 411.298 88.8528C416.833 88.8528 416.825 85.0356 422.359 85.0356" stroke="#F9F9F9" stroke-width="1.69" stroke-miterlimit="10"/>
<path d="M179.121 91.4084C184.647 91.4084 184.647 95.2255 190.182 95.2255C195.716 95.2255 195.708 91.4084 201.234 91.4084C206.761 91.4084 206.761 95.2255 212.287 95.2255C217.813 95.2255 217.813 91.4084 223.34 91.4084C228.866 91.4084 228.866 95.2255 234.392 95.2255C239.918 95.2255 239.918 91.4084 245.445 91.4084C250.971 91.4084 250.971 95.2255 256.505 95.2255C262.04 95.2255 262.032 91.4084 267.558 91.4084C273.084 91.4084 273.101 95.2174 278.586 95.2174C284.072 95.2174 284.112 91.4003 289.639 91.4003C295.165 91.4003 295.165 95.2174 300.691 95.2174C306.218 95.2174 306.218 91.4003 311.744 91.4003C317.27 91.4003 317.27 95.2174 322.805 95.2174C328.339 95.2174 328.331 91.4003 333.857 91.4003C339.383 91.4003 339.383 95.2174 344.918 95.2174C350.452 95.2174 350.444 91.4003 355.979 91.4003C361.513 91.4003 361.505 95.2174 367.039 95.2174C372.574 95.2174 372.566 91.4003 378.092 91.4003C383.618 91.4003 383.659 95.2174 389.193 95.2174C394.728 95.2174 394.72 91.4003 400.254 91.4003C405.788 91.4003 405.78 95.2174 411.315 95.2174C416.849 95.2174 416.841 91.4003 422.375 91.4003" stroke="#F9F9F9" stroke-width="1.69" stroke-miterlimit="10"/>
<path d="M179.121 99.0508C184.647 99.0508 184.647 102.868 190.182 102.868C195.716 102.868 195.708 99.0508 201.234 99.0508C206.761 99.0508 206.761 102.868 212.287 102.868C217.813 102.868 217.813 99.0508 223.34 99.0508C228.866 99.0508 228.866 102.868 234.392 102.868C239.918 102.868 239.918 99.0508 245.445 99.0508C250.971 99.0508 250.971 102.868 256.505 102.868C262.04 102.868 262.032 99.0508 267.558 99.0508C273.084 99.0508 273.084 102.868 278.611 102.868C284.137 102.868 284.137 99.0508 289.663 99.0508C295.189 99.0508 295.189 102.868 300.716 102.868C306.242 102.868 306.242 99.0508 311.768 99.0508C317.295 99.0508 317.295 102.868 322.829 102.868C328.363 102.868 328.355 99.0508 333.882 99.0508C339.408 99.0508 339.408 102.868 344.942 102.868C350.477 102.868 350.469 99.0508 356.003 99.0508C361.537 99.0508 361.529 102.868 367.064 102.868C372.598 102.868 372.59 99.0508 378.116 99.0508C383.643 99.0508 383.643 102.868 389.177 102.868C394.711 102.868 394.703 99.0508 400.238 99.0508C405.772 99.0508 405.764 102.868 411.298 102.868C416.833 102.868 416.825 99.0508 422.359 99.0508" stroke="#F9F9F9" stroke-width="1.69" stroke-miterlimit="10"/>
<path d="M179.121 105.415C184.647 105.415 184.647 109.233 190.182 109.233C195.716 109.233 195.708 105.415 201.234 105.415C206.761 105.415 206.761 109.233 212.287 109.233C217.813 109.233 217.813 105.415 223.34 105.415C228.866 105.415 228.866 109.233 234.392 109.233C239.918 109.233 239.918 105.415 245.445 105.415C250.971 105.415 250.971 109.233 256.505 109.233C262.04 109.233 262.032 105.415 267.558 105.415C273.084 105.415 273.084 109.233 278.611 109.233C284.137 109.233 284.137 105.415 289.663 105.415C295.189 105.415 295.189 109.233 300.716 109.233C306.242 109.233 306.242 105.415 311.768 105.415C317.295 105.415 317.295 109.233 322.829 109.233C328.363 109.233 328.355 105.415 333.882 105.415C339.408 105.415 339.408 109.233 344.942 109.233C350.477 109.233 350.469 105.415 356.003 105.415C361.537 105.415 361.529 109.233 367.064 109.233C372.598 109.233 372.59 105.415 378.116 105.415C383.643 105.415 383.643 109.233 389.177 109.233C394.711 109.233 394.703 105.415 400.238 105.415C405.772 105.415 405.764 109.233 411.298 109.233C416.833 109.233 416.825 105.415 422.359 105.415" stroke="#F9F9F9" stroke-width="1.69" stroke-miterlimit="10"/>
<path d="M179.121 112.423C184.647 112.423 184.647 116.24 190.182 116.24C195.716 116.24 195.708 112.423 201.234 112.423C206.761 112.423 206.761 116.24 212.287 116.24C217.813 116.24 217.813 112.423 223.34 112.423C228.866 112.423 228.866 116.24 234.392 116.24C239.918 116.24 239.918 112.423 245.445 112.423C250.971 112.423 250.971 116.24 256.505 116.24C262.04 116.24 262.032 112.423 267.558 112.423C273.084 112.423 273.084 116.24 278.611 116.24C284.137 116.24 284.137 112.423 289.663 112.423C295.189 112.423 295.189 116.24 300.716 116.24C306.242 116.24 306.242 112.423 311.768 112.423C317.295 112.423 317.295 116.24 322.829 116.24C328.363 116.24 328.355 112.423 333.882 112.423C339.408 112.423 339.408 116.24 344.942 116.24C350.477 116.24 350.469 112.423 356.003 112.423C361.537 112.423 361.529 116.24 367.064 116.24C372.598 116.24 372.59 112.423 378.116 112.423C383.643 112.423 383.643 116.24 389.177 116.24C394.711 116.24 394.703 112.423 400.238 112.423C405.772 112.423 405.764 116.24 411.298 116.24C416.833 116.24 416.825 112.423 422.359 112.423" stroke="#F9F9F9" stroke-width="1.69" stroke-miterlimit="10"/>
<path d="M179.121 118.82C184.647 118.82 184.647 122.637 190.182 122.637C195.716 122.637 195.708 118.82 201.267 118.82C206.826 118.82 206.793 122.637 212.32 122.637C217.846 122.637 217.846 118.82 223.372 118.82C228.898 118.82 228.898 122.637 234.425 122.637C239.951 122.637 239.927 118.82 245.453 118.82C250.979 118.82 250.979 122.637 256.514 122.637C262.048 122.637 262.04 118.82 267.566 118.82C273.092 118.82 273.092 122.637 278.619 122.637C284.145 122.637 284.145 118.82 289.671 118.82C295.198 118.82 295.198 122.637 300.724 122.637C306.25 122.637 306.258 118.82 311.793 118.82C317.327 118.82 317.319 122.637 322.853 122.637C328.388 122.637 328.38 118.82 333.93 118.82C339.481 118.82 339.457 122.637 344.991 122.637C350.526 122.637 350.517 118.82 356.052 118.82C361.586 118.82 361.578 122.637 367.113 122.637C372.647 122.637 372.639 118.82 378.165 118.82C383.691 118.82 383.691 122.637 389.226 122.637C394.76 122.637 394.752 118.82 400.287 118.82C405.821 118.82 405.813 122.637 411.347 122.637C416.882 122.637 416.874 118.82 422.408 118.82" stroke="#F9F9F9" stroke-width="1.69" stroke-miterlimit="10"/>
<path d="M179.121 126.43C184.647 126.43 184.647 130.247 190.182 130.247C195.716 130.247 195.708 126.43 201.234 126.43C206.761 126.43 206.761 130.247 212.287 130.247C217.813 130.247 217.813 126.43 223.34 126.43C228.866 126.43 228.866 130.247 234.392 130.247C239.918 130.247 239.918 126.43 245.445 126.43C250.971 126.43 250.971 130.247 256.505 130.247C262.04 130.247 262.032 126.43 267.558 126.43C273.084 126.43 273.101 130.214 278.586 130.214C284.072 130.214 284.112 126.397 289.639 126.397C295.165 126.397 295.165 130.214 300.691 130.214C306.218 130.214 306.218 126.397 311.744 126.397C317.27 126.397 317.27 130.214 322.805 130.214C328.339 130.214 328.331 126.397 333.857 126.397C339.383 126.397 339.383 130.214 344.918 130.214C350.452 130.214 350.444 126.397 355.979 126.397C361.513 126.397 361.505 130.214 367.039 130.214C372.574 130.214 372.566 126.397 378.092 126.397C383.618 126.397 383.659 130.214 389.193 130.214C394.728 130.214 394.72 126.397 400.254 126.397C405.788 126.397 405.78 130.214 411.315 130.214C416.849 130.214 416.841 126.397 422.375 126.397" stroke="#F9F9F9" stroke-width="1.69" stroke-miterlimit="10"/>
<path d="M179.121 132.795C184.647 132.795 184.647 136.612 190.182 136.612C195.716 136.612 195.708 132.795 201.234 132.795C206.761 132.795 206.761 136.612 212.287 136.612C217.813 136.612 217.813 132.795 223.34 132.795C228.866 132.795 228.866 136.612 234.392 136.612C239.918 136.612 239.918 132.795 245.445 132.795C250.971 132.795 250.971 136.612 256.505 136.612C262.04 136.612 262.032 132.795 267.558 132.795C273.084 132.795 273.084 136.612 278.611 136.612C284.137 136.612 284.137 132.795 289.663 132.795C295.189 132.795 295.189 136.612 300.716 136.612C306.242 136.612 306.242 132.795 311.768 132.795C317.295 132.795 317.295 136.612 322.829 136.612C328.363 136.612 328.355 132.795 333.882 132.795C339.408 132.795 339.408 136.612 344.942 136.612C350.477 136.612 350.469 132.795 356.003 132.795C361.537 132.795 361.529 136.612 367.064 136.612C372.598 136.612 372.59 132.795 378.116 132.795C383.643 132.795 383.643 136.612 389.177 136.612C394.711 136.612 394.703 132.795 400.238 132.795C405.772 132.795 405.764 136.612 411.298 136.612C416.833 136.612 416.825 132.795 422.359 132.795" stroke="#F9F9F9" stroke-width="1.69" stroke-miterlimit="10"/>
<path d="M179.121 139.167C184.647 139.167 184.647 142.984 190.182 142.984C195.716 142.984 195.708 139.167 201.267 139.167C206.826 139.167 206.793 142.984 212.32 142.984C217.846 142.984 217.846 139.167 223.372 139.167C228.898 139.167 228.898 142.984 234.425 142.984C239.951 142.984 239.927 139.167 245.453 139.167C250.979 139.167 250.979 142.984 256.514 142.984C262.048 142.984 262.04 139.167 267.566 139.167C273.092 139.167 273.092 142.984 278.619 142.984C284.145 142.984 284.145 139.167 289.671 139.167C295.198 139.167 295.198 142.984 300.724 142.984C306.25 142.984 306.258 139.167 311.793 139.167C317.327 139.167 317.319 142.984 322.853 142.984C328.388 142.984 328.38 139.167 333.93 139.167C339.481 139.167 339.457 142.984 344.991 142.984C350.526 142.984 350.517 139.167 356.052 139.167C361.586 139.167 361.578 142.984 367.113 142.984C372.647 142.984 372.639 139.167 378.165 139.167C383.691 139.167 383.691 142.984 389.226 142.984C394.76 142.984 394.752 139.167 400.287 139.167C405.821 139.167 405.813 142.984 411.347 142.984C416.882 142.984 416.874 139.167 422.408 139.167" stroke="#F9F9F9" stroke-width="1.69" stroke-miterlimit="10"/>
<path d="M179.121 145.532C184.647 145.532 184.647 149.349 190.182 149.349C195.716 149.349 195.708 145.532 201.234 145.532C206.761 145.532 206.761 149.349 212.287 149.349C217.813 149.349 217.813 145.532 223.34 145.532C228.866 145.532 228.866 149.349 234.392 149.349C239.918 149.349 239.918 145.532 245.445 145.532C250.971 145.532 250.971 149.349 256.505 149.349C262.04 149.349 262.032 145.532 267.558 145.532C273.084 145.532 273.084 149.349 278.611 149.349C284.137 149.349 284.137 145.532 289.663 145.532C295.189 145.532 295.189 149.349 300.716 149.349C306.242 149.349 306.242 145.532 311.768 145.532C317.295 145.532 317.295 149.349 322.829 149.349C328.363 149.349 328.355 145.532 333.882 145.532C339.408 145.532 339.408 149.349 344.942 149.349C350.477 149.349 350.469 145.532 356.003 145.532C361.537 145.532 361.529 149.349 367.064 149.349C372.598 149.349 372.59 145.532 378.116 145.532C383.643 145.532 383.643 149.349 389.177 149.349C394.711 149.349 394.703 145.532 400.238 145.532C405.772 145.532 405.764 149.349 411.298 149.349C416.833 149.349 416.825 145.532 422.359 145.532" stroke="#F9F9F9" stroke-width="1.69" stroke-miterlimit="10"/>
<path d="M179.121 153.174C184.647 153.174 184.647 156.991 190.182 156.991C195.716 156.991 195.708 153.174 201.234 153.174C206.761 153.174 206.761 156.991 212.287 156.991C217.813 156.991 217.813 153.174 223.34 153.174C228.866 153.174 228.866 156.991 234.392 156.991C239.918 156.991 239.918 153.174 245.445 153.174C250.971 153.174 250.971 156.991 256.505 156.991C262.04 156.991 262.032 153.174 267.558 153.174C273.084 153.174 273.084 156.991 278.611 156.991C284.137 156.991 284.137 153.174 289.663 153.174C295.189 153.174 295.189 156.991 300.716 156.991C306.242 156.991 306.242 153.174 311.768 153.174C317.295 153.174 317.295 156.991 322.829 156.991C328.363 156.991 328.355 153.174 333.882 153.174C339.408 153.174 339.408 156.991 344.942 156.991C350.477 156.991 350.469 153.174 356.003 153.174C361.537 153.174 361.529 156.991 367.064 156.991C372.598 156.991 372.59 153.174 378.116 153.174C383.643 153.174 383.643 156.991 389.177 156.991C394.711 156.991 394.703 153.174 400.238 153.174C405.772 153.174 405.764 156.991 411.298 156.991C416.833 156.991 416.825 153.174 422.359 153.174" stroke="#F9F9F9" stroke-width="1.69" stroke-miterlimit="10"/>
<path d="M179.121 159.514C184.647 159.514 184.647 163.332 190.182 163.332C195.716 163.332 195.708 159.514 201.267 159.514C206.826 159.514 206.793 163.332 212.32 163.332C217.846 163.332 217.846 159.514 223.372 159.514C228.898 159.514 228.898 163.332 234.425 163.332C239.951 163.332 239.927 159.514 245.453 159.514C250.979 159.514 250.979 163.332 256.514 163.332C262.048 163.332 262.04 159.514 267.566 159.514C273.092 159.514 273.092 163.332 278.619 163.332C284.145 163.332 284.145 159.514 289.671 159.514C295.198 159.514 295.198 163.332 300.724 163.332C306.25 163.332 306.258 159.514 311.793 159.514C317.327 159.514 317.319 163.332 322.853 163.332C328.388 163.332 328.38 159.514 333.93 159.514C339.481 159.514 339.457 163.332 344.991 163.332C350.526 163.332 350.517 159.514 356.052 159.514C361.586 159.514 361.578 163.332 367.113 163.332C372.647 163.332 372.639 159.514 378.165 159.514C383.691 159.514 383.691 163.332 389.226 163.332C394.76 163.332 394.752 159.514 400.287 159.514C405.821 159.514 405.813 163.332 411.347 163.332C416.882 163.332 416.874 159.514 422.408 159.514" stroke="#F9F9F9" stroke-width="1.69" stroke-miterlimit="10"/>
<path d="M179.121 166.546C184.647 166.546 184.647 170.364 190.182 170.364C195.716 170.364 195.708 166.546 201.234 166.546C206.761 166.546 206.761 170.364 212.287 170.364C217.813 170.364 217.813 166.546 223.34 166.546C228.866 166.546 228.866 170.364 234.392 170.364C239.918 170.364 239.918 166.546 245.445 166.546C250.971 166.546 250.971 170.364 256.505 170.364C262.04 170.364 262.032 166.546 267.558 166.546C273.084 166.546 273.084 170.364 278.611 170.364C284.137 170.364 284.137 166.546 289.663 166.546C295.189 166.546 295.189 170.364 300.716 170.364C306.242 170.364 306.242 166.546 311.768 166.546C317.295 166.546 317.295 170.364 322.829 170.364C328.363 170.364 328.355 166.546 333.882 166.546C339.408 166.546 339.408 170.364 344.942 170.364C350.477 170.364 350.469 166.546 356.003 166.546C361.537 166.546 361.529 170.364 367.064 170.364C372.598 170.364 372.59 166.546 378.116 166.546C383.643 166.546 383.643 170.364 389.177 170.364C394.711 170.364 394.703 166.546 400.238 166.546C405.772 166.546 405.764 170.364 411.298 170.364C416.833 170.364 416.825 166.546 422.359 166.546" stroke="#F9F9F9" stroke-width="1.69" stroke-miterlimit="10"/>
<path d="M179.121 172.911C184.647 172.911 184.647 176.728 190.182 176.728C195.716 176.728 195.708 172.911 201.234 172.911C206.761 172.911 206.761 176.728 212.287 176.728C217.813 176.728 217.813 172.911 223.34 172.911C228.866 172.911 228.866 176.728 234.392 176.728C239.918 176.728 239.918 172.911 245.445 172.911C250.971 172.911 250.971 176.728 256.505 176.728C262.04 176.728 262.032 172.911 267.558 172.911C273.084 172.911 273.084 176.728 278.611 176.728C284.137 176.728 284.137 172.911 289.663 172.911C295.189 172.911 295.189 176.728 300.716 176.728C306.242 176.728 306.242 172.911 311.768 172.911C317.295 172.911 317.295 176.728 322.829 176.728C328.363 176.728 328.355 172.911 333.882 172.911C339.408 172.911 339.408 176.728 344.942 176.728C350.477 176.728 350.469 172.911 356.003 172.911C361.537 172.911 361.529 176.728 367.064 176.728C372.598 176.728 372.59 172.911 378.116 172.911C383.643 172.911 383.643 176.728 389.177 176.728C394.711 176.728 394.703 172.911 400.238 172.911C405.772 172.911 405.764 176.728 411.298 176.728C416.833 176.728 416.825 172.911 422.359 172.911" stroke="#F9F9F9" stroke-width="1.69" stroke-miterlimit="10"/>
<path d="M179.121 180.553C184.647 180.553 184.647 184.37 190.182 184.37C195.716 184.37 195.708 180.553 201.234 180.553C206.761 180.553 206.761 184.37 212.287 184.37C217.813 184.37 217.813 180.553 223.34 180.553C228.866 180.553 228.866 184.37 234.392 184.37C239.918 184.37 239.918 180.553 245.445 180.553C250.971 180.553 250.971 184.37 256.505 184.37C262.04 184.37 262.032 180.553 267.558 180.553C273.084 180.553 273.084 184.37 278.611 184.37C284.137 184.37 284.137 180.553 289.663 180.553C295.189 180.553 295.189 184.37 300.716 184.37C306.242 184.37 306.242 180.553 311.768 180.553C317.295 180.553 317.295 184.37 322.829 184.37C328.363 184.37 328.355 180.553 333.882 180.553C339.408 180.553 339.408 184.37 344.942 184.37C350.477 184.37 350.469 180.553 356.003 180.553C361.537 180.553 361.529 184.37 367.064 184.37C372.598 184.37 372.59 180.553 378.116 180.553C383.643 180.553 383.643 184.37 389.177 184.37C394.711 184.37 394.703 180.553 400.238 180.553C405.772 180.553 405.764 184.37 411.298 184.37C416.833 184.37 416.825 180.553 422.359 180.553" stroke="#F9F9F9" stroke-width="1.69" stroke-miterlimit="10"/>
<path d="M179.121 186.926C184.647 186.926 184.647 190.743 190.182 190.743C195.716 190.743 195.708 186.926 201.234 186.926C206.761 186.926 206.761 190.743 212.287 190.743C217.813 190.743 217.813 186.926 223.34 186.926C228.866 186.926 228.866 190.743 234.392 190.743C239.918 190.743 239.918 186.926 245.445 186.926C250.971 186.926 250.971 190.743 256.505 190.743C262.04 190.743 262.032 186.926 267.558 186.926C273.084 186.926 273.084 190.743 278.611 190.743C284.137 190.743 284.137 186.926 289.663 186.926C295.189 186.926 295.189 190.743 300.716 190.743C306.242 190.743 306.242 186.926 311.768 186.926C317.295 186.926 317.295 190.743 322.829 190.743C328.363 190.743 328.355 186.926 333.882 186.926C339.408 186.926 339.408 190.743 344.942 190.743C350.477 190.743 350.469 186.926 356.003 186.926C361.537 186.926 361.529 190.743 367.064 190.743C372.598 190.743 372.59 186.926 378.116 186.926C383.643 186.926 383.643 190.743 389.177 190.743C394.711 190.743 394.703 186.926 400.238 186.926C405.772 186.926 405.764 190.743 411.298 190.743C416.833 190.743 416.825 186.926 422.359 186.926" stroke="#F9F9F9" stroke-width="1.69" stroke-miterlimit="10"/>
<path d="M179.121 193.926C184.647 193.926 184.647 197.743 190.182 197.743C195.716 197.743 195.708 193.926 201.234 193.926C206.761 193.926 206.761 197.743 212.287 197.743C217.813 197.743 217.813 193.926 223.34 193.926C228.866 193.926 228.866 197.743 234.392 197.743C239.918 197.743 239.918 193.926 245.445 193.926C250.971 193.926 250.971 197.743 256.505 197.743C262.04 197.743 262.032 193.926 267.558 193.926C273.084 193.926 273.101 197.767 278.586 197.767C284.072 197.767 284.112 193.95 289.639 193.95C295.165 193.95 295.165 197.767 300.691 197.767C306.218 197.767 306.218 193.95 311.744 193.95C317.27 193.95 317.27 197.767 322.805 197.767C328.339 197.767 328.331 193.95 333.857 193.95C339.383 193.95 339.383 197.767 344.918 197.767C350.452 197.767 350.444 193.95 355.979 193.95C361.513 193.95 361.505 197.767 367.039 197.767C372.574 197.767 372.566 193.95 378.092 193.95C383.618 193.95 383.659 197.767 389.193 197.767C394.728 197.767 394.72 193.95 400.254 193.95C405.788 193.95 405.78 197.767 411.315 197.767C416.849 197.767 416.841 193.95 422.375 193.95" stroke="#F9F9F9" stroke-width="1.69" stroke-miterlimit="10"/>
<path d="M179.121 200.933C184.647 200.933 184.647 204.75 190.182 204.75C195.716 204.75 195.708 200.933 201.234 200.933C206.761 200.933 206.761 204.75 212.287 204.75C217.813 204.75 217.813 200.933 223.34 200.933C228.866 200.933 228.866 204.75 234.392 204.75C239.918 204.75 239.918 200.933 245.445 200.933C250.971 200.933 250.971 204.75 256.505 204.75C262.04 204.75 262.032 200.933 267.558 200.933C273.084 200.933 273.084 204.75 278.611 204.75C284.137 204.75 284.137 200.933 289.663 200.933C295.189 200.933 295.189 204.75 300.716 204.75C306.242 204.75 306.242 200.933 311.768 200.933C317.295 200.933 317.295 204.75 322.829 204.75C328.363 204.75 328.355 200.933 333.882 200.933C339.408 200.933 339.408 204.75 344.942 204.75C350.477 204.75 350.469 200.933 356.003 200.933C361.537 200.933 361.529 204.75 367.064 204.75C372.598 204.75 372.59 200.933 378.116 200.933C383.643 200.933 383.643 204.75 389.177 204.75C394.711 204.75 394.703 200.933 400.238 200.933C405.772 200.933 405.764 204.75 411.298 204.75C416.833 204.75 416.825 200.933 422.359 200.933" stroke="#F9F9F9" stroke-width="1.69" stroke-miterlimit="10"/>
<path d="M179.121 207.298C184.647 207.298 184.647 211.115 190.182 211.115C195.716 211.115 195.708 207.298 201.234 207.298C206.761 207.298 206.761 211.115 212.287 211.115C217.813 211.115 217.813 207.298 223.34 207.298C228.866 207.298 228.866 211.115 234.392 211.115C239.918 211.115 239.918 207.298 245.445 207.298C250.971 207.298 250.971 211.115 256.505 211.115C262.04 211.115 262.032 207.298 267.558 207.298C273.084 207.298 273.084 211.115 278.611 211.115C284.137 211.115 284.137 207.298 289.663 207.298C295.189 207.298 295.189 211.115 300.716 211.115C306.242 211.115 306.242 207.298 311.768 207.298C317.295 207.298 317.295 211.115 322.829 211.115C328.363 211.115 328.355 207.298 333.882 207.298C339.408 207.298 339.408 211.115 344.942 211.115C350.477 211.115 350.469 207.298 356.003 207.298C361.537 207.298 361.529 211.115 367.064 211.115C372.598 211.115 372.59 207.298 378.116 207.298C383.643 207.298 383.643 211.115 389.177 211.115C394.711 211.115 394.703 207.298 400.238 207.298C405.772 207.298 405.764 211.115 411.298 211.115C416.833 211.115 416.825 207.298 422.359 207.298" stroke="#F9F9F9" stroke-width="1.69" stroke-miterlimit="10"/>
</g>
</g>
<path d="M406.13 93.9559H195.357V125.795H406.13V93.9559Z" fill="#8EA3A8"/>
<path d="M402.207 125.795V101.289C402.207 99.5798 400.579 98.2043 398.617 98.2043H202.894C200.916 98.2043 199.305 99.588 199.305 101.289V125.795H402.207Z" fill="#24C2FF"/>
<path d="M268.274 110.51H211.383C209.626 110.51 208.201 111.935 208.201 113.693V174.832C208.201 176.589 209.626 178.014 211.383 178.014H268.274C270.032 178.014 271.456 176.589 271.456 174.832V113.693C271.456 111.935 270.032 110.51 268.274 110.51Z" fill="#D9D9DB"/>
<path d="M265.215 114.132H214.436C212.867 114.132 211.596 115.404 211.596 116.973V171.544C211.596 173.112 212.867 174.384 214.436 174.384H265.215C266.783 174.384 268.055 173.112 268.055 171.544V116.973C268.055 115.404 266.783 114.132 265.215 114.132Z" fill="#F2F1F2"/>
<path d="M259.224 184.745C259.224 185.019 259.115 185.282 258.921 185.476C258.727 185.67 258.464 185.779 258.19 185.779C257.916 185.779 257.653 185.67 257.459 185.476C257.265 185.282 257.156 185.019 257.156 184.745V180.098C257.156 179.823 257.265 179.561 257.459 179.367C257.653 179.173 257.916 179.064 258.19 179.064C258.464 179.064 258.727 179.173 258.921 179.367C259.115 179.561 259.224 179.823 259.224 180.098V184.745Z" fill="#24C2FF"/>
<path d="M258.191 189.164C258.856 189.164 259.395 188.625 259.395 187.96C259.395 187.294 258.856 186.755 258.191 186.755C257.526 186.755 256.986 187.294 256.986 187.96C256.986 188.625 257.526 189.164 258.191 189.164Z" fill="#24C2FF"/>
<path d="M259.224 195.626C259.224 195.901 259.115 196.164 258.921 196.357C258.727 196.551 258.464 196.66 258.19 196.66C257.916 196.66 257.653 196.551 257.459 196.357C257.265 196.164 257.156 195.901 257.156 195.626V190.979C257.156 190.843 257.183 190.709 257.235 190.584C257.287 190.458 257.363 190.344 257.459 190.248C257.555 190.152 257.669 190.076 257.794 190.024C257.92 189.972 258.054 189.946 258.19 189.946C258.326 189.946 258.46 189.972 258.585 190.024C258.711 190.076 258.825 190.152 258.921 190.248C259.017 190.344 259.093 190.458 259.145 190.584C259.197 190.709 259.224 190.843 259.224 190.979V195.626Z" fill="#24C2FF"/>
<path d="M259.224 206.476C259.224 206.75 259.115 207.013 258.921 207.207C258.727 207.4 258.464 207.509 258.19 207.509C257.916 207.509 257.653 207.4 257.459 207.207C257.265 207.013 257.156 206.75 257.156 206.476V201.836C257.156 201.562 257.265 201.299 257.459 201.106C257.653 200.912 257.916 200.803 258.19 200.803C258.464 200.803 258.727 200.912 258.921 201.106C259.115 201.299 259.224 201.562 259.224 201.836V206.476Z" fill="#24C2FF"/>
<path d="M258.191 200.013C258.856 200.013 259.395 199.474 259.395 198.809C259.395 198.144 258.856 197.604 258.191 197.604C257.526 197.604 256.986 198.144 256.986 198.809C256.986 199.474 257.526 200.013 258.191 200.013Z" fill="#24C2FF"/>
<path d="M311.442 184.745C311.442 185.019 311.333 185.282 311.14 185.476C310.946 185.67 310.683 185.779 310.409 185.779C310.135 185.779 309.872 185.67 309.678 185.476C309.484 185.282 309.375 185.019 309.375 184.745V180.098C309.375 179.823 309.484 179.561 309.678 179.367C309.872 179.173 310.135 179.064 310.409 179.064C310.683 179.064 310.946 179.173 311.14 179.367C311.333 179.561 311.442 179.823 311.442 180.098V184.745Z" fill="#24C2FF"/>
<path d="M310.41 189.164C311.075 189.164 311.614 188.625 311.614 187.96C311.614 187.294 311.075 186.755 310.41 186.755C309.744 186.755 309.205 187.294 309.205 187.96C309.205 188.625 309.744 189.164 310.41 189.164Z" fill="#24C2FF"/>
<path d="M311.442 195.626C311.442 195.901 311.333 196.164 311.14 196.357C310.946 196.551 310.683 196.66 310.409 196.66C310.135 196.66 309.872 196.551 309.678 196.357C309.484 196.164 309.375 195.901 309.375 195.626V190.979C309.375 190.843 309.402 190.709 309.454 190.584C309.506 190.458 309.582 190.344 309.678 190.248C309.774 190.152 309.888 190.076 310.013 190.024C310.138 189.972 310.273 189.946 310.409 189.946C310.683 189.946 310.946 190.054 311.14 190.248C311.333 190.442 311.442 190.705 311.442 190.979V195.626Z" fill="#24C2FF"/>
<path d="M311.442 206.476C311.446 206.613 311.421 206.75 311.371 206.879C311.32 207.007 311.245 207.124 311.148 207.222C311.052 207.321 310.937 207.399 310.81 207.453C310.683 207.506 310.546 207.534 310.409 207.534C310.135 207.534 309.872 207.425 309.678 207.231C309.484 207.037 309.375 206.774 309.375 206.5V201.836C309.375 201.562 309.484 201.299 309.678 201.106C309.872 200.912 310.135 200.803 310.409 200.803C310.683 200.803 310.946 200.912 311.14 201.106C311.333 201.299 311.442 201.562 311.442 201.836V206.476Z" fill="#24C2FF"/>
<path d="M310.41 200.013C311.075 200.013 311.614 199.474 311.614 198.809C311.614 198.144 311.075 197.604 310.41 197.604C309.744 197.604 309.205 198.144 309.205 198.809C309.205 199.474 309.744 200.013 310.41 200.013Z" fill="#24C2FF"/>
<path d="M372.573 184.745C372.573 185.019 372.464 185.282 372.27 185.476C372.077 185.67 371.814 185.779 371.539 185.779C371.265 185.779 371.002 185.67 370.809 185.476C370.615 185.282 370.506 185.019 370.506 184.745V180.098C370.506 179.823 370.615 179.561 370.809 179.367C371.002 179.173 371.265 179.064 371.539 179.064C371.814 179.064 372.077 179.173 372.27 179.367C372.464 179.561 372.573 179.823 372.573 180.098V184.745Z" fill="#24C2FF"/>
<path d="M371.54 189.164C372.206 189.164 372.745 188.625 372.745 187.96C372.745 187.294 372.206 186.755 371.54 186.755C370.875 186.755 370.336 187.294 370.336 187.96C370.336 188.625 370.875 189.164 371.54 189.164Z" fill="#24C2FF"/>
<path d="M372.573 195.626C372.573 195.901 372.464 196.164 372.27 196.357C372.077 196.551 371.814 196.66 371.539 196.66C371.265 196.66 371.002 196.551 370.809 196.357C370.615 196.164 370.506 195.901 370.506 195.626V190.979C370.506 190.843 370.533 190.709 370.585 190.584C370.636 190.458 370.713 190.344 370.809 190.248C370.905 190.152 371.019 190.076 371.144 190.024C371.269 189.972 371.404 189.946 371.539 189.946C371.675 189.946 371.81 189.972 371.935 190.024C372.06 190.076 372.174 190.152 372.27 190.248C372.366 190.344 372.443 190.458 372.494 190.584C372.546 190.709 372.573 190.843 372.573 190.979V195.626Z" fill="#24C2FF"/>
<path d="M372.573 206.476C372.573 206.75 372.464 207.013 372.27 207.207C372.077 207.4 371.814 207.509 371.539 207.509C371.265 207.509 371.002 207.4 370.809 207.207C370.615 207.013 370.506 206.75 370.506 206.476V201.836C370.506 201.562 370.615 201.299 370.809 201.106C371.002 200.912 371.265 200.803 371.539 200.803C371.814 200.803 372.077 200.912 372.27 201.106C372.464 201.299 372.573 201.562 372.573 201.836V206.476Z" fill="#24C2FF"/>
<path d="M371.54 200.013C372.206 200.013 372.745 199.474 372.745 198.809C372.745 198.144 372.206 197.604 371.54 197.604C370.875 197.604 370.336 198.144 370.336 198.809C370.336 199.474 370.875 200.013 371.54 200.013Z" fill="#24C2FF"/>
<path d="M242.589 187.992H208.202C206.444 187.992 205.02 189.417 205.02 191.175V192.029C205.02 193.787 206.444 195.211 208.202 195.211H242.589C244.346 195.211 245.771 193.787 245.771 192.029V191.175C245.771 189.417 244.346 187.992 242.589 187.992Z" fill="#8EA3A8"/>
<path d="M242.589 198.182H208.202C206.444 198.182 205.02 199.607 205.02 201.364V202.219C205.02 203.977 206.444 205.401 208.202 205.401H242.589C244.346 205.401 245.771 203.977 245.771 202.219V201.364C245.771 199.607 244.346 198.182 242.589 198.182Z" fill="#8EA3A8"/>
<path d="M300.219 192.021C300.219 193.779 299.218 195.203 297.981 195.203H273.801C272.564 195.203 271.562 193.779 271.562 192.021V191.207C271.562 189.449 272.564 188.025 273.801 188.025H297.981C299.218 188.025 300.219 189.449 300.219 191.207V192.021Z" fill="#8EA3A8"/>
<path d="M300.219 202.211C300.219 203.969 299.218 205.393 297.981 205.393H273.801C272.564 205.393 271.562 203.969 271.562 202.211V201.397C271.562 199.639 272.564 198.215 273.801 198.215H297.981C299.218 198.215 300.219 199.639 300.219 201.397V202.211Z" fill="#8EA3A8"/>
<path d="M359.333 194.145H324.946C323.188 194.145 321.764 195.57 321.764 197.328V198.182C321.764 199.94 323.188 201.364 324.946 201.364H359.333C361.09 201.364 362.515 199.94 362.515 198.182V197.328C362.515 195.57 361.09 194.145 359.333 194.145Z" fill="#8EA3A8"/>
<path d="M399.024 184.598H384.163C382.405 184.598 380.98 186.023 380.98 187.781V203.065C380.98 204.823 382.405 206.248 384.163 206.248H399.024C400.782 206.248 402.207 204.823 402.207 203.065V187.781C402.207 186.023 400.782 184.598 399.024 184.598Z" fill="#8EA3A8"/>
<path d="M394.435 148.934C394.435 150.692 392.31 152.116 389.69 152.116H285.911C283.29 152.116 281.166 150.692 281.166 148.934V135.765C281.166 134.007 283.29 132.583 285.911 132.583H389.69C392.31 132.583 394.435 134.007 394.435 135.765V148.934Z" fill="#8EA3A8"/>
<path d="M393.792 157.203C393.792 158.375 392.375 159.327 390.626 159.327H284.283C282.533 159.327 281.117 158.375 281.117 157.203C281.117 156.031 282.533 155.079 284.283 155.079H390.634C392.384 155.079 393.8 156.031 393.8 157.203H393.792Z" fill="#8EA3A8"/>
<path d="M257.824 161.468C257.821 161.747 257.763 162.024 257.653 162.281C257.542 162.538 257.382 162.77 257.182 162.966C256.982 163.161 256.745 163.314 256.485 163.418C256.225 163.521 255.947 163.572 255.667 163.568H227.735C227.455 163.572 227.178 163.521 226.918 163.418C226.658 163.314 226.421 163.161 226.22 162.966C226.02 162.77 225.86 162.538 225.75 162.281C225.64 162.024 225.581 161.747 225.578 161.468V143.652C225.581 143.372 225.64 143.096 225.75 142.839C225.86 142.582 226.02 142.349 226.22 142.154C226.421 141.959 226.658 141.805 226.918 141.702C227.178 141.599 227.455 141.548 227.735 141.552H255.676C255.955 141.548 256.233 141.599 256.493 141.702C256.753 141.805 256.99 141.959 257.19 142.154C257.391 142.349 257.55 142.582 257.661 142.839C257.771 143.096 257.829 143.372 257.832 143.652L257.824 161.468Z" fill="#724041"/>
<path d="M226.765 161.37C226.768 161.409 226.762 161.448 226.749 161.485C226.736 161.522 226.715 161.556 226.688 161.585C226.662 161.614 226.63 161.637 226.594 161.653C226.558 161.669 226.52 161.678 226.481 161.679C226.441 161.678 226.403 161.669 226.367 161.653C226.331 161.637 226.299 161.614 226.273 161.585C226.246 161.556 226.226 161.522 226.212 161.485C226.199 161.448 226.194 161.409 226.196 161.37V144.864C226.194 144.825 226.199 144.786 226.212 144.749C226.226 144.712 226.246 144.678 226.273 144.65C226.299 144.621 226.331 144.598 226.367 144.581C226.403 144.565 226.441 144.556 226.481 144.555C226.52 144.556 226.558 144.565 226.594 144.581C226.63 144.598 226.662 144.621 226.688 144.65C226.715 144.678 226.736 144.712 226.749 144.749C226.762 144.786 226.768 144.825 226.765 144.864V161.37Z" fill="#805355"/>
<path d="M240.651 160.035C226.889 160.035 215.738 166.546 215.738 174.498H265.564C265.564 166.514 254.414 160.035 240.651 160.035Z" fill="#19698C"/>
<path d="M242.774 160.768C246.786 160.745 250.779 161.329 254.616 162.501C250.162 160.834 245.438 160.006 240.683 160.06C226.92 160.06 215.77 166.571 215.77 174.522H217.894C218.52 166.839 229.41 160.768 242.774 160.768Z" fill="#0F435E"/>
<path d="M224.145 174.498L225.601 170.152L227.058 174.498H224.145Z" fill="#0F435E"/>
<path d="M255.139 174.498L256.596 170.152L258.061 174.498H255.139Z" fill="#0F435E"/>
<path d="M228.206 139.379C228.206 139.379 225.83 144.262 229.289 151.123C232.056 156.641 236.923 159.091 241.228 158.847C245.534 158.603 250.344 155.152 251.996 150.952C255.252 142.708 255.349 137.116 252.81 133.201C250.271 129.287 229.964 121.677 228.206 139.379Z" fill="#EE9E6A"/>
<path d="M228.256 141.169C227.594 144.479 228.125 147.915 229.754 150.871C232.374 156.088 236.973 158.407 241.05 158.196C245.128 157.984 249.669 154.696 251.24 150.733C251.947 149.228 252.477 147.647 252.819 146.02C250.329 144.026 247.122 139.835 247.122 136.962C239.716 144.864 231.341 141.934 228.256 141.169Z" fill="#F9AE7C"/>
<path d="M259.158 142.211C259.85 135.505 257.685 126.487 251.833 125.234C251.833 125.234 234.139 116.281 226.741 130.003C220.417 141.739 227.555 145.898 227.555 145.898C227.555 145.898 227.343 142.024 227.734 140.714C227.734 140.714 237.924 144.987 248.545 133.698C246.258 142.39 253.591 143.522 253.127 146.72C253.152 146.688 258.654 147.143 259.158 142.211Z" fill="#724041"/>
<path d="M228.418 140.282C228.418 140.282 236.557 143.758 248 133.503C248 133.47 236.956 141.357 228.418 140.282Z" fill="#805355"/>
<path d="M241.245 158.7C239.736 158.779 238.23 158.5 236.85 157.887C236.85 161.142 237.11 163.584 240.65 163.584C244.191 163.584 244.443 161.028 244.451 157.765C243.447 158.267 242.361 158.584 241.245 158.7Z" fill="#F9AE7C"/>
<path d="M244.452 158.253C244.452 158.123 244.452 157.992 244.452 157.854C244.159 157.992 243.858 158.106 243.557 158.212C243.866 158.245 244.159 158.253 244.452 158.253Z" fill="#EE9E6A"/>
<path d="M239.771 158.7C238.765 158.6 237.78 158.348 236.85 157.952C236.85 161.207 237.11 163.649 240.65 163.649C240.947 163.649 241.244 163.627 241.538 163.584C240.195 162.656 239.853 160.874 239.771 158.7Z" fill="#EE9E6A"/>
<path d="M227.62 146.159C227.281 146.237 226.961 146.385 226.682 146.593C226.403 146.802 226.171 147.066 226 147.369C225.828 147.672 225.722 148.008 225.688 148.354C225.654 148.701 225.692 149.051 225.8 149.382C225.909 149.713 226.085 150.018 226.318 150.277C226.55 150.536 226.835 150.743 227.152 150.887C227.47 151.03 227.813 151.105 228.162 151.108C228.51 151.111 228.855 151.041 229.175 150.904C228.433 149.404 227.909 147.806 227.62 146.159Z" fill="#F9AE7C"/>
<path d="M227.808 146.858C228.134 147.982 228.532 149.164 229.004 150.407C228.76 150.543 228.489 150.624 228.21 150.644C227.931 150.663 227.652 150.621 227.391 150.521C227.13 150.42 226.894 150.263 226.701 150.061C226.508 149.859 226.361 149.617 226.272 149.352C226.182 149.087 226.152 148.806 226.184 148.528C226.216 148.25 226.308 147.983 226.455 147.745C226.602 147.507 226.799 147.304 227.033 147.151C227.267 146.998 227.531 146.898 227.808 146.858Z" fill="#EE9E6A"/>
<path d="M254.169 146.915C253.927 146.82 253.672 146.762 253.412 146.745C253.027 148.063 252.541 149.466 251.955 150.952C251.906 151.066 251.857 151.188 251.809 151.302C252.098 151.509 252.428 151.651 252.777 151.72C253.126 151.789 253.485 151.784 253.832 151.703C254.178 151.623 254.503 151.469 254.786 151.253C255.069 151.037 255.302 150.764 255.471 150.451C255.64 150.138 255.74 149.792 255.765 149.438C255.79 149.083 255.739 148.727 255.616 148.393C255.493 148.06 255.3 147.756 255.051 147.503C254.801 147.249 254.501 147.052 254.169 146.924V146.915Z" fill="#F9AE7C"/>
<path d="M253.193 147.347C252.867 148.47 252.468 149.653 251.996 150.895C252.24 151.032 252.511 151.112 252.79 151.132C253.069 151.152 253.349 151.11 253.61 151.009C253.871 150.908 254.106 150.752 254.3 150.55C254.493 150.348 254.64 150.106 254.729 149.841C254.818 149.576 254.848 149.294 254.816 149.017C254.785 148.739 254.692 148.471 254.546 148.233C254.399 147.995 254.202 147.792 253.968 147.639C253.734 147.486 253.469 147.386 253.193 147.347Z" fill="#EE9E6A"/>
<path opacity="0.3" d="M249.368 151.05C250.046 151.05 250.597 150.5 250.597 149.821C250.597 149.142 250.046 148.592 249.368 148.592C248.689 148.592 248.139 149.142 248.139 149.821C248.139 150.5 248.689 151.05 249.368 151.05Z" fill="#EF4F4F"/>
<path opacity="0.3" d="M231.315 151.05C231.994 151.05 232.544 150.5 232.544 149.821C232.544 149.142 231.994 148.592 231.315 148.592C230.636 148.592 230.086 149.142 230.086 149.821C230.086 150.5 230.636 151.05 231.315 151.05Z" fill="#EF4F4F"/>
<path d="M237.257 143.074C237.257 143.074 234.653 139.452 231.674 143.074C231.674 143.074 233.188 141.023 237.257 143.074Z" fill="#4C2F22"/>
<path d="M243.467 143.074C243.467 143.074 246.071 139.452 249.05 143.074C249.05 143.074 247.536 141.023 243.467 143.074Z" fill="#4C2F22"/>
<path d="M235.107 161.191C235.106 161.838 235.278 162.473 235.607 163.03C235.936 163.587 236.409 164.045 236.977 164.356C237.544 164.667 238.185 164.819 238.831 164.796C239.477 164.773 240.106 164.577 240.65 164.227C241.194 164.577 241.822 164.773 242.469 164.796C243.115 164.819 243.756 164.667 244.323 164.356C244.891 164.045 245.364 163.587 245.693 163.03C246.022 162.473 246.194 161.838 246.193 161.191H235.107Z" fill="#EDEDED"/>
<path d="M235.832 161.191H235.107C235.107 162.147 235.487 163.064 236.163 163.741C236.84 164.417 237.757 164.797 238.713 164.797H239.063C238.174 164.702 237.351 164.281 236.754 163.615C236.157 162.949 235.829 162.085 235.832 161.191Z" fill="#D9D9DB"/>
<path d="M289.622 118.621H293.978V103.221H289.622V118.621ZM297.077 118.621H304.359C309.463 118.621 312.961 115.651 312.961 110.921C312.961 106.191 309.463 103.221 304.359 103.221H297.077V118.621ZM301.433 115.145V106.697H304.183C306.801 106.697 308.561 108.259 308.561 110.921C308.561 113.583 306.801 115.145 304.183 115.145H301.433ZM329.333 118.929C332.171 118.929 334.459 117.895 335.955 116.025L333.183 113.517C332.215 114.683 331.027 115.321 329.553 115.321C327.023 115.321 325.263 113.561 325.263 110.921C325.263 108.281 327.023 106.521 329.553 106.521C331.027 106.521 332.215 107.159 333.183 108.325L335.955 105.817C334.459 103.947 332.171 102.913 329.333 102.913C324.449 102.913 320.863 106.235 320.863 110.921C320.863 115.607 324.449 118.929 329.333 118.929ZM349.168 118.621H353.7L346.88 103.221H342.59L335.792 118.621H340.236L341.446 115.629H347.958L349.168 118.621ZM342.722 112.417L344.702 107.489L346.682 112.417H342.722ZM364.461 118.621H369.125L365.803 113.781C367.717 112.857 368.817 111.185 368.817 108.919C368.817 105.399 366.177 103.221 361.975 103.221H354.935V118.621H359.291V114.529H361.667L364.461 118.621ZM364.417 108.919C364.417 110.327 363.515 111.163 361.711 111.163H359.291V106.653H361.711C363.515 106.653 364.417 107.489 364.417 108.919ZM371.22 118.621H378.502C383.606 118.621 387.104 115.651 387.104 110.921C387.104 106.191 383.606 103.221 378.502 103.221H371.22V118.621ZM375.576 115.145V106.697H378.326C380.944 106.697 382.704 108.259 382.704 110.921C382.704 113.583 380.944 115.145 378.326 115.145H375.576Z" fill="white"/>
<path fill-rule="evenodd" clip-rule="evenodd" d="M233.822 217.764C227.392 225.162 218.13 235.157 211.033 242.344C220.238 236.541 232.259 224.764 238.787 211.457C237.246 213.646 235.589 215.752 233.822 217.764Z" fill="#C48B65"/>
<path fill-rule="evenodd" clip-rule="evenodd" d="M233.823 217.764C236.064 215.227 238.115 212.529 239.96 209.69C243.215 205.059 246.471 200.355 244.973 194.023C244.429 192.495 243.447 191.162 242.149 190.19C237.819 186.788 231.568 188.774 227.084 190.418C215.738 194.536 204.946 207.81 201.219 211.497C196.433 216.226 181.514 231.112 177.404 234.18L199.086 254.902C199.086 254.902 206.224 247.178 210.31 243.084C217.464 235.849 227.141 225.439 233.823 217.764Z" fill="#E2A379"/>
<path fill-rule="evenodd" clip-rule="evenodd" d="M229.013 207.208C225.757 203.619 222.119 199.883 224.585 197.026C227.051 194.17 235.166 186.649 241.302 191.573C247.439 196.497 242.735 203.7 238.128 207.648C233.522 211.595 232.407 210.74 229.013 207.208Z" fill="#F2E2D3"/>
<path d="M224.055 222.184C222.033 217.741 218.843 213.929 214.826 211.155C213.843 210.488 212.782 209.941 211.668 209.528C212.772 210.384 213.826 211.302 214.826 212.279C217.642 214.973 221.109 218.749 224.055 222.184Z" fill="#AD8666"/>
<path d="M207.119 215.827C208.478 219.473 211.669 223.323 214.802 225.789C215.774 226.574 216.834 227.243 217.96 227.783C217.146 226.969 216.023 225.814 214.802 224.528C212.271 221.882 209.235 218.578 207.119 215.827Z" fill="#AD8666"/>
<path d="M202.895 220.173C204.254 223.82 207.444 227.669 210.578 230.135C211.55 230.92 212.61 231.589 213.736 232.129C212.922 231.315 211.798 230.16 210.578 228.874C208.055 226.253 205.027 222.924 202.895 220.173Z" fill="#AD8666"/>
<path opacity="0.4" fill-rule="evenodd" clip-rule="evenodd" d="M234.441 210.081C233.463 207.471 231.953 205.093 230.006 203.098C228.281 201.134 226.209 199.506 223.893 198.296C223.161 200.933 226.221 204.132 229.013 207.249C231.259 209.544 232.512 210.7 234.441 210.081Z" fill="#AD8666"/>
<mask id="mask1_273_793" style="mask-type:luminance" maskUnits="userSpaceOnUse" x="97" y="264" width="97" height="92">
<path d="M193.958 264.196H97V355.051H193.958V264.196Z" fill="white"/>
</mask>
<g mask="url(#mask1_273_793)">
<path d="M114.798 278.788L71.0508 367.381L144.91 403.852L188.657 315.259L114.798 278.788Z" fill="#2C576B"/>
<path opacity="0.4" d="M114.78 278.828L71.0508 367.385L108.298 385.778L152.027 297.221L114.78 278.828Z" fill="#072E40"/>
<path opacity="0.4" d="M114.783 278.816L71.0508 367.38L98.0228 380.698L141.756 292.134L114.783 278.816Z" fill="#072E40"/>
<path d="M179.59 327.185C180.669 325.001 179.913 322.425 177.902 321.431C175.891 320.438 173.386 321.403 172.307 323.587C171.228 325.772 171.984 328.348 173.995 329.341C176.006 330.335 178.511 329.369 179.59 327.185Z" fill="white"/>
<path d="M175.807 328.892C174.822 328.351 174.092 327.441 173.777 326.363C173.461 325.285 173.585 324.125 174.122 323.138C174.575 322.209 175.326 321.458 176.255 321.006C175.428 321.02 174.622 321.266 173.927 321.715C173.232 322.163 172.677 322.797 172.324 323.545C171.786 324.532 171.662 325.691 171.978 326.77C172.294 327.848 173.024 328.758 174.008 329.299C174.547 329.563 175.138 329.701 175.738 329.701C176.338 329.701 176.929 329.563 177.467 329.299C176.89 329.293 176.322 329.153 175.807 328.892Z" fill="#AAAAAA"/>
<path d="M174.439 337.596C175.518 335.411 174.762 332.835 172.751 331.842C170.74 330.849 168.235 331.815 167.156 333.999C166.078 336.184 166.833 338.76 168.845 339.753C170.856 340.746 173.361 339.78 174.439 337.596Z" fill="white"/>
<path d="M170.639 339.383C169.655 338.843 168.925 337.935 168.609 336.858C168.293 335.781 168.418 334.623 168.954 333.637C169.406 332.708 170.157 331.957 171.087 331.505C170.26 331.52 169.454 331.765 168.759 332.214C168.064 332.663 167.509 333.296 167.156 334.044C166.618 335.031 166.494 336.191 166.81 337.269C167.126 338.347 167.856 339.257 168.84 339.798C169.379 340.063 169.97 340.2 170.57 340.2C171.17 340.2 171.761 340.063 172.299 339.798C171.722 339.789 171.154 339.647 170.639 339.383Z" fill="#AAAAAA"/>
<path d="M124.635 268.026L118.434 280.585L183.944 312.934L190.146 300.375L124.635 268.026Z" fill="white"/>
<path opacity="0.5" d="M119.432 278.594L118.441 280.601L183.952 312.95L184.943 310.943L119.432 278.594Z" fill="#AAAAAA"/>
<path opacity="0.5" d="M120.471 276.508L118.334 280.836L183.845 313.185L185.982 308.857L120.471 276.508Z" fill="#AAAAAA"/>
</g>
<path d="M188.125 404.594H182.29V385.685H188.384C190.218 385.685 191.787 386.063 193.092 386.821C194.397 387.572 195.397 388.652 196.093 390.061C196.789 391.465 197.136 393.145 197.136 395.103C197.136 397.072 196.786 398.768 196.084 400.19C195.382 401.606 194.36 402.695 193.018 403.458C191.677 404.215 190.045 404.594 188.125 404.594ZM184.58 402.563H187.977C189.541 402.563 190.836 402.261 191.864 401.658C192.892 401.055 193.659 400.196 194.163 399.082C194.668 397.968 194.92 396.641 194.92 395.103C194.92 393.576 194.671 392.262 194.173 391.16C193.674 390.052 192.929 389.203 191.938 388.612C190.947 388.015 189.713 387.716 188.236 387.716H184.58V402.563ZM206.443 404.889C205.163 404.889 204.04 404.585 203.073 403.975C202.113 403.366 201.362 402.514 200.82 401.418C200.285 400.322 200.017 399.042 200.017 397.577C200.017 396.1 200.285 394.81 200.82 393.708C201.362 392.607 202.113 391.751 203.073 391.142C204.04 390.532 205.163 390.228 206.443 390.228C207.723 390.228 208.844 390.532 209.804 391.142C210.77 391.751 211.521 392.607 212.057 393.708C212.598 394.81 212.869 396.1 212.869 397.577C212.869 399.042 212.598 400.322 212.057 401.418C211.521 402.514 210.77 403.366 209.804 403.975C208.844 404.585 207.723 404.889 206.443 404.889ZM206.443 402.932C207.416 402.932 208.216 402.683 208.844 402.184C209.472 401.686 209.936 401.03 210.238 400.218C210.54 399.405 210.69 398.525 210.69 397.577C210.69 396.629 210.54 395.746 210.238 394.927C209.936 394.108 209.472 393.447 208.844 392.942C208.216 392.437 207.416 392.185 206.443 392.185C205.471 392.185 204.67 392.437 204.043 392.942C203.415 393.447 202.95 394.108 202.648 394.927C202.347 395.746 202.196 396.629 202.196 397.577C202.196 398.525 202.347 399.405 202.648 400.218C202.95 401.03 203.415 401.686 204.043 402.184C204.67 402.683 205.471 402.932 206.443 402.932ZM221.957 404.889C220.627 404.889 219.482 404.576 218.522 403.948C217.562 403.32 216.823 402.455 216.306 401.353C215.789 400.251 215.531 398.993 215.531 397.577C215.531 396.137 215.795 394.866 216.325 393.764C216.86 392.656 217.605 391.791 218.559 391.169C219.519 390.541 220.64 390.228 221.92 390.228C222.917 390.228 223.816 390.412 224.616 390.781C225.416 391.151 226.072 391.668 226.583 392.333C227.093 392.997 227.41 393.773 227.534 394.659H225.355C225.188 394.013 224.819 393.441 224.247 392.942C223.68 392.437 222.917 392.185 221.957 392.185C221.107 392.185 220.363 392.406 219.722 392.85C219.088 393.287 218.593 393.905 218.236 394.705C217.885 395.5 217.71 396.432 217.71 397.503C217.71 398.599 217.882 399.553 218.227 400.365C218.578 401.178 219.07 401.809 219.704 402.258C220.344 402.707 221.095 402.932 221.957 402.932C222.523 402.932 223.037 402.834 223.499 402.637C223.96 402.44 224.351 402.156 224.671 401.787C224.991 401.418 225.219 400.975 225.355 400.458H227.534C227.41 401.295 227.106 402.049 226.619 402.72C226.139 403.384 225.502 403.914 224.708 404.308C223.92 404.696 223.003 404.889 221.957 404.889ZM239.656 398.796V390.412H241.835V404.594H239.656V402.193H239.509C239.176 402.914 238.659 403.526 237.958 404.031C237.256 404.529 236.369 404.779 235.298 404.779C234.412 404.779 233.624 404.585 232.935 404.197C232.245 403.803 231.704 403.212 231.31 402.424C230.916 401.63 230.719 400.63 230.719 399.424V390.412H232.898V399.276C232.898 400.31 233.187 401.135 233.766 401.75C234.351 402.366 235.095 402.674 236 402.674C236.542 402.674 237.093 402.535 237.653 402.258C238.219 401.981 238.693 401.556 239.075 400.984C239.463 400.411 239.656 399.682 239.656 398.796ZM245.826 404.594V390.412H247.931V392.628H248.116C248.412 391.871 248.889 391.283 249.547 390.865C250.206 390.44 250.997 390.228 251.92 390.228C252.856 390.228 253.634 390.44 254.256 390.865C254.884 391.283 255.373 391.871 255.724 392.628H255.872C256.235 391.896 256.78 391.314 257.506 390.883C258.232 390.446 259.103 390.228 260.119 390.228C261.387 390.228 262.424 390.625 263.23 391.419C264.037 392.206 264.44 393.434 264.44 395.103V404.594H262.261V395.103C262.261 394.056 261.975 393.308 261.402 392.859C260.83 392.41 260.156 392.185 259.38 392.185C258.383 392.185 257.611 392.487 257.063 393.09C256.515 393.687 256.241 394.444 256.241 395.361V404.594H254.025V394.881C254.025 394.075 253.764 393.425 253.24 392.933C252.717 392.434 252.043 392.185 251.218 392.185C250.652 392.185 250.123 392.336 249.63 392.637C249.144 392.939 248.75 393.357 248.449 393.893C248.153 394.422 248.005 395.035 248.005 395.73V404.594H245.826ZM274.37 404.889C273.004 404.889 271.825 404.588 270.834 403.985C269.849 403.375 269.089 402.526 268.553 401.436C268.024 400.341 267.759 399.067 267.759 397.614C267.759 396.161 268.024 394.881 268.553 393.773C269.089 392.659 269.834 391.791 270.788 391.169C271.748 390.541 272.868 390.228 274.148 390.228C274.887 390.228 275.616 390.351 276.337 390.597C277.057 390.843 277.712 391.243 278.303 391.797C278.894 392.345 279.365 393.071 279.716 393.976C280.067 394.881 280.242 395.995 280.242 397.318V398.242H269.31V396.358H278.026C278.026 395.558 277.866 394.844 277.546 394.216C277.232 393.588 276.783 393.093 276.198 392.73C275.62 392.366 274.936 392.185 274.148 392.185C273.281 392.185 272.53 392.4 271.896 392.831C271.268 393.256 270.785 393.81 270.446 394.493C270.107 395.176 269.938 395.909 269.938 396.691V397.946C269.938 399.017 270.123 399.925 270.492 400.67C270.868 401.409 271.388 401.972 272.053 402.36C272.717 402.741 273.49 402.932 274.37 402.932C274.942 402.932 275.46 402.852 275.921 402.692C276.389 402.526 276.792 402.28 277.131 401.953C277.469 401.621 277.731 401.209 277.915 400.716L280.021 401.307C279.799 402.021 279.427 402.649 278.903 403.191C278.38 403.726 277.734 404.145 276.964 404.446C276.195 404.742 275.33 404.889 274.37 404.889ZM285.736 396.063V404.594H283.557V390.412H285.662V392.628H285.847C286.179 391.908 286.684 391.329 287.361 390.892C288.038 390.449 288.912 390.228 289.983 390.228C290.943 390.228 291.783 390.424 292.504 390.818C293.224 391.206 293.784 391.797 294.184 392.591C294.584 393.379 294.784 394.376 294.784 395.583V404.594H292.605V395.73C292.605 394.616 292.316 393.748 291.737 393.127C291.159 392.499 290.365 392.185 289.355 392.185C288.66 392.185 288.038 392.336 287.49 392.637C286.948 392.939 286.521 393.379 286.207 393.958C285.893 394.536 285.736 395.238 285.736 396.063ZM304.933 390.412V392.259H297.584V390.412H304.933ZM299.726 387.014H301.905V400.531C301.905 401.147 301.994 401.609 302.173 401.916C302.357 402.218 302.591 402.421 302.874 402.526C303.164 402.624 303.468 402.674 303.789 402.674C304.029 402.674 304.226 402.661 304.379 402.637C304.533 402.606 304.656 402.581 304.749 402.563L305.192 404.52C305.044 404.576 304.838 404.631 304.573 404.686C304.309 404.748 303.973 404.779 303.567 404.779C302.951 404.779 302.348 404.646 301.757 404.382C301.173 404.117 300.686 403.714 300.298 403.172C299.917 402.63 299.726 401.947 299.726 401.122V387.014ZM326.16 390.412C326.049 389.477 325.6 388.75 324.812 388.233C324.024 387.716 323.058 387.458 321.913 387.458C321.076 387.458 320.343 387.593 319.715 387.864C319.094 388.135 318.607 388.507 318.257 388.981C317.912 389.455 317.74 389.994 317.74 390.597C317.74 391.102 317.86 391.536 318.1 391.899C318.346 392.256 318.66 392.554 319.041 392.794C319.423 393.028 319.823 393.222 320.242 393.376C320.66 393.524 321.045 393.644 321.396 393.736L323.316 394.253C323.809 394.382 324.356 394.561 324.96 394.789C325.569 395.016 326.151 395.327 326.705 395.721C327.265 396.109 327.727 396.607 328.09 397.217C328.453 397.826 328.634 398.574 328.634 399.46C328.634 400.482 328.367 401.406 327.831 402.23C327.302 403.055 326.526 403.711 325.504 404.197C324.489 404.683 323.255 404.926 321.802 404.926C320.448 404.926 319.275 404.708 318.284 404.271C317.299 403.834 316.524 403.224 315.958 402.443C315.397 401.661 315.08 400.753 315.007 399.719H317.37C317.432 400.433 317.672 401.024 318.09 401.492C318.515 401.953 319.051 402.298 319.697 402.526C320.349 402.747 321.051 402.858 321.802 402.858C322.676 402.858 323.461 402.717 324.156 402.433C324.852 402.144 325.403 401.744 325.809 401.233C326.215 400.716 326.419 400.113 326.419 399.424C326.419 398.796 326.243 398.285 325.892 397.891C325.541 397.497 325.08 397.177 324.507 396.931C323.935 396.684 323.316 396.469 322.651 396.284L320.325 395.62C318.847 395.195 317.678 394.589 316.816 393.801C315.954 393.013 315.524 391.982 315.524 390.708C315.524 389.649 315.81 388.726 316.382 387.938C316.961 387.144 317.736 386.528 318.709 386.091C319.688 385.648 320.78 385.426 321.987 385.426C323.205 385.426 324.289 385.645 325.237 386.082C326.185 386.513 326.936 387.104 327.49 387.855C328.05 388.606 328.345 389.458 328.376 390.412H326.16ZM337.865 404.889C336.536 404.889 335.391 404.576 334.43 403.948C333.47 403.32 332.732 402.455 332.214 401.353C331.697 400.251 331.439 398.993 331.439 397.577C331.439 396.137 331.704 394.866 332.233 393.764C332.768 392.656 333.513 391.791 334.467 391.169C335.428 390.541 336.548 390.228 337.828 390.228C338.825 390.228 339.724 390.412 340.524 390.781C341.324 391.151 341.98 391.668 342.491 392.333C343.002 392.997 343.319 393.773 343.442 394.659H341.263C341.097 394.013 340.727 393.441 340.155 392.942C339.589 392.437 338.825 392.185 337.865 392.185C337.016 392.185 336.271 392.406 335.631 392.85C334.997 393.287 334.501 393.905 334.144 394.705C333.793 395.5 333.618 396.432 333.618 397.503C333.618 398.599 333.79 399.553 334.135 400.365C334.486 401.178 334.978 401.809 335.612 402.258C336.252 402.707 337.003 402.932 337.865 402.932C338.431 402.932 338.945 402.834 339.407 402.637C339.869 402.44 340.259 402.156 340.58 401.787C340.9 401.418 341.127 400.975 341.263 400.458H343.442C343.319 401.295 343.014 402.049 342.528 402.72C342.048 403.384 341.411 403.914 340.616 404.308C339.829 404.696 338.911 404.889 337.865 404.889ZM350.8 404.926C349.902 404.926 349.086 404.757 348.354 404.419C347.621 404.074 347.04 403.578 346.609 402.932C346.178 402.28 345.962 401.492 345.962 400.568C345.962 399.756 346.122 399.097 346.442 398.593C346.763 398.082 347.19 397.682 347.726 397.392C348.261 397.103 348.852 396.888 349.499 396.746C350.151 396.598 350.807 396.481 351.465 396.395C352.327 396.284 353.026 396.201 353.561 396.146C354.103 396.084 354.497 395.983 354.743 395.841C354.995 395.7 355.121 395.453 355.121 395.103V395.029C355.121 394.118 354.872 393.41 354.374 392.905C353.881 392.4 353.133 392.148 352.13 392.148C351.09 392.148 350.274 392.376 349.683 392.831C349.092 393.287 348.677 393.773 348.437 394.29L346.369 393.551C346.738 392.69 347.23 392.019 347.846 391.539C348.468 391.052 349.145 390.714 349.877 390.523C350.616 390.326 351.342 390.228 352.056 390.228C352.512 390.228 353.035 390.283 353.626 390.394C354.223 390.498 354.798 390.717 355.352 391.049C355.912 391.382 356.377 391.883 356.746 392.554C357.116 393.225 357.3 394.124 357.3 395.25V404.594H355.121V402.674H355.011C354.863 402.981 354.617 403.311 354.272 403.661C353.927 404.012 353.469 404.311 352.896 404.557C352.324 404.803 351.625 404.926 350.8 404.926ZM351.133 402.969C351.995 402.969 352.721 402.8 353.312 402.461C353.909 402.123 354.358 401.686 354.66 401.15C354.968 400.615 355.121 400.051 355.121 399.46V397.466C355.029 397.577 354.826 397.679 354.512 397.771C354.204 397.857 353.847 397.934 353.441 398.002C353.041 398.063 352.65 398.119 352.268 398.168C351.893 398.211 351.588 398.248 351.354 398.279C350.788 398.353 350.259 398.473 349.766 398.639C349.28 398.799 348.886 399.042 348.585 399.368C348.289 399.688 348.141 400.125 348.141 400.679C348.141 401.436 348.421 402.009 348.982 402.397C349.548 402.778 350.265 402.969 351.133 402.969ZM363.456 396.063V404.594H361.278V390.412H363.383V392.628H363.567C363.9 391.908 364.404 391.329 365.081 390.892C365.759 390.449 366.633 390.228 367.704 390.228C368.664 390.228 369.504 390.424 370.224 390.818C370.944 391.206 371.505 391.797 371.905 392.591C372.305 393.379 372.505 394.376 372.505 395.583V404.594H370.326V395.73C370.326 394.616 370.037 393.748 369.458 393.127C368.879 392.499 368.085 392.185 367.076 392.185C366.38 392.185 365.759 392.336 365.211 392.637C364.669 392.939 364.241 393.379 363.927 393.958C363.613 394.536 363.456 395.238 363.456 396.063Z" fill="#444343"/>
<path d="M52.4886 450.594L47.6818 433.139H48.2614L52.8295 449.742H52.8977L57.3295 433.139H58.0795L62.5114 449.742H62.5795L67.1477 433.139H67.7273L62.9205 450.594H62.1705L57.7386 433.992H57.6705L53.2386 450.594H52.4886ZM70.7848 450.594V437.503H71.3303V450.594H70.7848ZM71.0575 435.117C70.9098 435.117 70.782 435.063 70.674 434.955C70.5661 434.847 70.5121 434.719 70.5121 434.571C70.5121 434.424 70.5661 434.296 70.674 434.188C70.782 434.08 70.9098 434.026 71.0575 434.026C71.2053 434.026 71.3331 434.08 71.4411 434.188C71.549 434.296 71.603 434.424 71.603 434.571C71.603 434.719 71.549 434.847 71.4411 434.955C71.3331 435.063 71.2053 435.117 71.0575 435.117ZM76.5824 433.139V450.594H76.0369V433.139H76.5824ZM81.7621 433.139V450.594H81.2166V433.139H81.7621ZM96.419 450.867C95.7031 450.867 95.0412 450.719 94.4332 450.424C93.831 450.128 93.3452 449.696 92.9759 449.128C92.6122 448.56 92.4304 447.867 92.4304 447.049C92.4304 446.605 92.5014 446.191 92.6435 445.804C92.7855 445.412 93.0355 445.057 93.3935 444.739C93.7514 444.421 94.2514 444.148 94.8935 443.921C95.5412 443.693 96.3679 443.52 97.3736 443.401C97.9759 443.333 98.544 443.253 99.0781 443.162C99.6122 443.071 100.047 442.935 100.382 442.753C100.717 442.571 100.885 442.31 100.885 441.969V441.185C100.885 440.179 100.547 439.372 99.8707 438.764C99.1946 438.151 98.294 437.844 97.169 437.844C96.2486 437.844 95.4446 438.049 94.7571 438.458C94.0696 438.861 93.5895 439.429 93.3168 440.162L92.8054 439.958C93.0099 439.412 93.3253 438.941 93.7514 438.543C94.1776 438.145 94.6832 437.838 95.2685 437.622C95.8537 437.406 96.4872 437.299 97.169 437.299C97.8338 437.299 98.4276 437.398 98.9503 437.597C99.4787 437.79 99.9276 438.063 100.297 438.415C100.666 438.762 100.947 439.171 101.141 439.642C101.334 440.114 101.43 440.628 101.43 441.185V450.594H100.885V447.935H100.817C100.544 448.526 100.189 449.043 99.7514 449.486C99.3196 449.924 98.8196 450.264 98.2514 450.509C97.6889 450.747 97.0781 450.867 96.419 450.867ZM96.419 450.321C97.2486 450.321 98.0014 450.1 98.6776 449.656C99.3537 449.208 99.8906 448.585 100.288 447.79C100.686 446.989 100.885 446.06 100.885 445.003V443.026C100.726 443.145 100.533 443.25 100.305 443.341C100.084 443.432 99.831 443.514 99.5469 443.588C99.2685 443.656 98.9645 443.716 98.6349 443.767C98.3054 443.818 97.9531 443.867 97.5781 443.912C96.4077 444.049 95.4872 444.256 94.8168 444.534C94.1463 444.813 93.6719 445.162 93.3935 445.583C93.1151 446.003 92.9759 446.492 92.9759 447.049C92.9759 448.037 93.3054 448.83 93.9645 449.426C94.6293 450.023 95.4474 450.321 96.419 450.321ZM113.972 440.264L113.426 440.401C113.25 439.833 113.003 439.361 112.685 438.986C112.372 438.605 111.989 438.321 111.534 438.134C111.08 437.941 110.551 437.844 109.949 437.844C108.903 437.844 108.057 438.111 107.409 438.645C106.761 439.174 106.438 439.872 106.438 440.742C106.438 441.429 106.656 442.006 107.094 442.472C107.537 442.938 108.205 443.281 109.097 443.503L111.142 444.014C112.102 444.253 112.83 444.656 113.324 445.225C113.824 445.793 114.074 446.48 114.074 447.287C114.074 447.997 113.886 448.622 113.511 449.162C113.142 449.702 112.631 450.122 111.977 450.424C111.324 450.719 110.568 450.867 109.71 450.867C108.545 450.867 107.594 450.583 106.855 450.014C106.116 449.446 105.636 448.639 105.415 447.594L105.96 447.458C106.153 448.384 106.565 449.094 107.196 449.588C107.832 450.077 108.67 450.321 109.71 450.321C110.847 450.321 111.767 450.043 112.472 449.486C113.176 448.929 113.528 448.196 113.528 447.287C113.528 446.611 113.318 446.04 112.898 445.574C112.477 445.108 111.847 444.77 111.006 444.56L108.96 444.049C107.955 443.799 107.19 443.389 106.668 442.821C106.151 442.253 105.892 441.56 105.892 440.742C105.892 440.054 106.062 439.455 106.403 438.943C106.75 438.426 107.227 438.023 107.835 437.733C108.449 437.443 109.153 437.299 109.949 437.299C110.96 437.299 111.804 437.549 112.48 438.049C113.156 438.543 113.653 439.281 113.972 440.264ZM118.376 445.31V444.321H118.58L125.535 437.503H126.319L120.353 443.367L120.285 443.435L118.376 445.31ZM117.967 450.594V433.139H118.512V450.594H117.967ZM125.808 450.594L120.08 443.367L120.489 443.026L126.523 450.594H125.808ZM137.009 455.503C136.787 455.503 136.551 455.472 136.301 455.409C136.051 455.353 135.798 455.27 135.543 455.162L135.747 454.685C136.31 454.924 136.821 455.009 137.281 454.941C137.747 454.878 138.156 454.665 138.509 454.301C138.866 453.938 139.162 453.429 139.395 452.776L140.094 450.833L135.321 437.503H135.901L140.332 449.912H140.401L144.832 437.503H145.412L139.906 452.98C139.713 453.526 139.472 453.986 139.182 454.361C138.892 454.736 138.563 455.02 138.193 455.213C137.83 455.406 137.435 455.503 137.009 455.503ZM153.119 450.867C152.09 450.867 151.167 450.571 150.349 449.98C149.531 449.384 148.883 448.574 148.406 447.551C147.934 446.523 147.698 445.367 147.698 444.083C147.698 442.793 147.934 441.637 148.406 440.614C148.883 439.591 149.531 438.784 150.349 438.193C151.167 437.597 152.09 437.299 153.119 437.299C154.147 437.299 155.067 437.597 155.88 438.193C156.698 438.79 157.346 439.6 157.823 440.622C158.3 441.645 158.539 442.799 158.539 444.083C158.539 445.367 158.3 446.523 157.823 447.551C157.352 448.574 156.707 449.384 155.888 449.98C155.07 450.571 154.147 450.867 153.119 450.867ZM153.119 450.321C154.045 450.321 154.874 450.049 155.607 449.503C156.346 448.958 156.928 448.213 157.354 447.27C157.781 446.327 157.994 445.264 157.994 444.083C157.994 442.901 157.778 441.841 157.346 440.904C156.92 439.96 156.34 439.216 155.607 438.671C154.874 438.12 154.045 437.844 153.119 437.844C152.198 437.844 151.369 438.12 150.63 438.671C149.897 439.216 149.315 439.96 148.883 440.904C148.457 441.841 148.244 442.901 148.244 444.083C148.244 445.264 148.457 446.327 148.883 447.27C149.309 448.213 149.888 448.958 150.621 449.503C151.36 450.049 152.192 450.321 153.119 450.321ZM170.835 446.299V437.503H171.381V450.594H170.835V448.514H170.767C170.46 449.196 169.955 449.742 169.25 450.151C168.551 450.56 167.75 450.764 166.847 450.764C165.972 450.764 165.199 450.574 164.528 450.193C163.858 449.813 163.332 449.287 162.952 448.617C162.571 447.946 162.381 447.174 162.381 446.299V437.503H162.926V446.299C162.926 447.458 163.29 448.401 164.017 449.128C164.744 449.855 165.688 450.219 166.847 450.219C167.619 450.219 168.304 450.051 168.901 449.716C169.503 449.381 169.974 448.918 170.315 448.327C170.662 447.736 170.835 447.06 170.835 446.299ZM186.862 437.503V438.049H181.68V437.503H186.862ZM183.589 434.367H184.135V447.833C184.135 448.344 184.249 448.784 184.476 449.154C184.703 449.517 185.004 449.799 185.379 449.997C185.754 450.191 186.158 450.287 186.589 450.287C186.754 450.287 186.905 450.273 187.041 450.245C187.183 450.216 187.328 450.174 187.476 450.117L187.646 450.628C187.476 450.691 187.308 450.739 187.143 450.773C186.979 450.813 186.794 450.833 186.589 450.833C186.055 450.833 185.558 450.71 185.098 450.466C184.643 450.222 184.277 449.875 183.999 449.426C183.726 448.978 183.589 448.446 183.589 447.833V434.367ZM195.611 450.867C194.582 450.867 193.659 450.571 192.841 449.98C192.023 449.384 191.375 448.574 190.898 447.551C190.426 446.523 190.19 445.367 190.19 444.083C190.19 442.793 190.426 441.637 190.898 440.614C191.375 439.591 192.023 438.784 192.841 438.193C193.659 437.597 194.582 437.299 195.611 437.299C196.639 437.299 197.56 437.597 198.372 438.193C199.19 438.79 199.838 439.6 200.315 440.622C200.793 441.645 201.031 442.799 201.031 444.083C201.031 445.367 200.793 446.523 200.315 447.551C199.844 448.574 199.199 449.384 198.381 449.98C197.563 450.571 196.639 450.867 195.611 450.867ZM195.611 450.321C196.537 450.321 197.366 450.049 198.099 449.503C198.838 448.958 199.42 448.213 199.847 447.27C200.273 446.327 200.486 445.264 200.486 444.083C200.486 442.901 200.27 441.841 199.838 440.904C199.412 439.96 198.832 439.216 198.099 438.671C197.366 438.12 196.537 437.844 195.611 437.844C194.69 437.844 193.861 438.12 193.122 438.671C192.389 439.216 191.807 439.96 191.375 440.904C190.949 441.841 190.736 442.901 190.736 444.083C190.736 445.264 190.949 446.327 191.375 447.27C191.801 448.213 192.381 448.958 193.114 449.503C193.852 450.049 194.685 450.321 195.611 450.321ZM215.714 437.503V438.049H210.532V437.503H215.714ZM212.441 434.367H212.987V447.833C212.987 448.344 213.1 448.784 213.327 449.154C213.555 449.517 213.856 449.799 214.231 449.997C214.606 450.191 215.009 450.287 215.441 450.287C215.606 450.287 215.756 450.273 215.893 450.245C216.035 450.216 216.18 450.174 216.327 450.117L216.498 450.628C216.327 450.691 216.16 450.739 215.995 450.773C215.83 450.813 215.646 450.833 215.441 450.833C214.907 450.833 214.41 450.71 213.95 450.466C213.495 450.222 213.129 449.875 212.85 449.426C212.577 448.978 212.441 448.446 212.441 447.833V434.367ZM223.239 450.867C222.523 450.867 221.862 450.719 221.254 450.424C220.651 450.128 220.165 449.696 219.796 449.128C219.433 448.56 219.251 447.867 219.251 447.049C219.251 446.605 219.322 446.191 219.464 445.804C219.606 445.412 219.856 445.057 220.214 444.739C220.572 444.421 221.072 444.148 221.714 443.921C222.362 443.693 223.188 443.52 224.194 443.401C224.796 443.333 225.364 443.253 225.898 443.162C226.433 443.071 226.867 442.935 227.202 442.753C227.538 442.571 227.705 442.31 227.705 441.969V441.185C227.705 440.179 227.367 439.372 226.691 438.764C226.015 438.151 225.114 437.844 223.989 437.844C223.069 437.844 222.265 438.049 221.577 438.458C220.89 438.861 220.41 439.429 220.137 440.162L219.626 439.958C219.83 439.412 220.146 438.941 220.572 438.543C220.998 438.145 221.504 437.838 222.089 437.622C222.674 437.406 223.308 437.299 223.989 437.299C224.654 437.299 225.248 437.398 225.771 437.597C226.299 437.79 226.748 438.063 227.117 438.415C227.487 438.762 227.768 439.171 227.961 439.642C228.154 440.114 228.251 440.628 228.251 441.185V450.594H227.705V447.935H227.637C227.364 448.526 227.009 449.043 226.572 449.486C226.14 449.924 225.64 450.264 225.072 450.509C224.509 450.747 223.898 450.867 223.239 450.867ZM223.239 450.321C224.069 450.321 224.822 450.1 225.498 449.656C226.174 449.208 226.711 448.585 227.109 447.79C227.506 446.989 227.705 446.06 227.705 445.003V443.026C227.546 443.145 227.353 443.25 227.126 443.341C226.904 443.432 226.651 443.514 226.367 443.588C226.089 443.656 225.785 443.716 225.455 443.767C225.126 443.818 224.773 443.867 224.398 443.912C223.228 444.049 222.308 444.256 221.637 444.534C220.967 444.813 220.492 445.162 220.214 445.583C219.935 446.003 219.796 446.492 219.796 447.049C219.796 448.037 220.126 448.83 220.785 449.426C221.45 450.023 222.268 450.321 223.239 450.321ZM233.36 445.31V444.321H233.565L240.519 437.503H241.303L235.337 443.367L235.269 443.435L233.36 445.31ZM232.951 450.594V433.139H233.496V450.594H232.951ZM240.792 450.594L235.065 443.367L235.474 443.026L241.508 450.594H240.792ZM249.016 450.867C247.874 450.867 246.874 450.568 246.016 449.972C245.164 449.375 244.502 448.566 244.031 447.543C243.559 446.52 243.323 445.367 243.323 444.083C243.323 442.799 243.559 441.645 244.031 440.622C244.508 439.6 245.156 438.79 245.974 438.193C246.792 437.597 247.715 437.299 248.744 437.299C249.505 437.299 250.21 437.46 250.857 437.784C251.511 438.108 252.079 438.557 252.562 439.131C253.045 439.705 253.42 440.367 253.687 441.117C253.96 441.861 254.096 442.656 254.096 443.503V444.049H243.596V443.503H253.55C253.55 442.452 253.335 441.5 252.903 440.648C252.471 439.79 251.891 439.108 251.164 438.603C250.437 438.097 249.63 437.844 248.744 437.844C247.846 437.844 247.033 438.111 246.306 438.645C245.579 439.179 244.996 439.906 244.559 440.827C244.121 441.747 243.891 442.787 243.869 443.946V444.014C243.869 445.156 244.067 446.208 244.465 447.168C244.869 448.122 245.454 448.887 246.221 449.46C246.988 450.034 247.92 450.321 249.016 450.321C249.823 450.321 250.499 450.179 251.045 449.895C251.596 449.611 252.036 449.284 252.366 448.915C252.701 448.546 252.948 448.23 253.107 447.969L253.55 448.276C253.357 448.605 253.067 448.972 252.681 449.375C252.295 449.779 251.8 450.128 251.198 450.424C250.596 450.719 249.869 450.867 249.016 450.867ZM267.982 450.867C267.266 450.867 266.604 450.719 265.996 450.424C265.393 450.128 264.908 449.696 264.538 449.128C264.175 448.56 263.993 447.867 263.993 447.049C263.993 446.605 264.064 446.191 264.206 445.804C264.348 445.412 264.598 445.057 264.956 444.739C265.314 444.421 265.814 444.148 266.456 443.921C267.104 443.693 267.93 443.52 268.936 443.401C269.538 443.333 270.107 443.253 270.641 443.162C271.175 443.071 271.609 442.935 271.945 442.753C272.28 442.571 272.447 442.31 272.447 441.969V441.185C272.447 440.179 272.109 439.372 271.433 438.764C270.757 438.151 269.857 437.844 268.732 437.844C267.811 437.844 267.007 438.049 266.32 438.458C265.632 438.861 265.152 439.429 264.879 440.162L264.368 439.958C264.572 439.412 264.888 438.941 265.314 438.543C265.74 438.145 266.246 437.838 266.831 437.622C267.416 437.406 268.05 437.299 268.732 437.299C269.396 437.299 269.99 437.398 270.513 437.597C271.041 437.79 271.49 438.063 271.859 438.415C272.229 438.762 272.51 439.171 272.703 439.642C272.896 440.114 272.993 440.628 272.993 441.185V450.594H272.447V447.935H272.379C272.107 448.526 271.751 449.043 271.314 449.486C270.882 449.924 270.382 450.264 269.814 450.509C269.251 450.747 268.641 450.867 267.982 450.867ZM267.982 450.321C268.811 450.321 269.564 450.1 270.24 449.656C270.916 449.208 271.453 448.585 271.851 447.79C272.249 446.989 272.447 446.06 272.447 445.003V443.026C272.288 443.145 272.095 443.25 271.868 443.341C271.646 443.432 271.393 443.514 271.109 443.588C270.831 443.656 270.527 443.716 270.197 443.767C269.868 443.818 269.516 443.867 269.141 443.912C267.97 444.049 267.05 444.256 266.379 444.534C265.709 444.813 265.234 445.162 264.956 445.583C264.678 446.003 264.538 446.492 264.538 447.049C264.538 448.037 264.868 448.83 265.527 449.426C266.192 450.023 267.01 450.321 267.982 450.321ZM284.443 455.503V437.503H284.989V440.844H285.057C285.295 440.117 285.628 439.489 286.054 438.96C286.48 438.432 286.983 438.023 287.562 437.733C288.148 437.443 288.79 437.299 289.489 437.299C290.523 437.299 291.415 437.597 292.165 438.193C292.92 438.784 293.503 439.591 293.912 440.614C294.327 441.637 294.534 442.793 294.534 444.083C294.534 445.367 294.327 446.52 293.912 447.543C293.497 448.566 292.912 449.375 292.156 449.972C291.401 450.568 290.511 450.867 289.489 450.867C288.795 450.867 288.156 450.725 287.571 450.441C286.986 450.151 286.477 449.742 286.045 449.213C285.614 448.679 285.284 448.049 285.057 447.321H284.989V455.503H284.443ZM284.989 444.083C284.989 445.264 285.17 446.327 285.534 447.27C285.903 448.208 286.423 448.952 287.094 449.503C287.77 450.049 288.568 450.321 289.489 450.321C290.409 450.321 291.205 450.049 291.875 449.503C292.551 448.952 293.071 448.208 293.435 447.27C293.804 446.327 293.989 445.264 293.989 444.083C293.989 442.901 293.807 441.841 293.443 440.904C293.08 439.96 292.56 439.216 291.884 438.671C291.213 438.12 290.415 437.844 289.489 437.844C288.563 437.844 287.761 438.12 287.085 438.671C286.415 439.216 285.898 439.96 285.534 440.904C285.17 441.841 284.989 442.901 284.989 444.083ZM298.457 450.594V437.503H299.002V450.594H298.457ZM298.729 435.117C298.582 435.117 298.454 435.063 298.346 434.955C298.238 434.847 298.184 434.719 298.184 434.571C298.184 434.424 298.238 434.296 298.346 434.188C298.454 434.08 298.582 434.026 298.729 434.026C298.877 434.026 299.005 434.08 299.113 434.188C299.221 434.296 299.275 434.424 299.275 434.571C299.275 434.719 299.221 434.847 299.113 434.955C299.005 435.063 298.877 435.117 298.729 435.117ZM308.413 450.867C307.357 450.867 306.413 450.571 305.584 449.98C304.76 449.384 304.109 448.574 303.632 447.551C303.161 446.529 302.925 445.372 302.925 444.083C302.925 442.804 303.161 441.654 303.632 440.631C304.104 439.603 304.751 438.79 305.575 438.193C306.405 437.597 307.351 437.299 308.413 437.299C309.197 437.299 309.916 437.469 310.57 437.81C311.229 438.145 311.78 438.617 312.223 439.225C312.666 439.827 312.953 440.526 313.084 441.321H312.504C312.328 440.293 311.859 439.458 311.098 438.816C310.342 438.168 309.447 437.844 308.413 437.844C307.476 437.844 306.632 438.117 305.882 438.662C305.138 439.202 304.55 439.943 304.118 440.887C303.686 441.824 303.47 442.889 303.47 444.083C303.47 445.242 303.678 446.293 304.092 447.236C304.513 448.179 305.095 448.929 305.839 449.486C306.584 450.043 307.442 450.321 308.413 450.321C309.112 450.321 309.754 450.176 310.339 449.887C310.925 449.591 311.411 449.176 311.797 448.642C312.189 448.108 312.436 447.486 312.538 446.776H313.118C312.993 447.6 312.709 448.318 312.266 448.932C311.822 449.546 311.268 450.023 310.604 450.364C309.939 450.699 309.209 450.867 308.413 450.867ZM321.065 437.503V438.049H315.884V437.503H321.065ZM317.793 434.367H318.338V447.833C318.338 448.344 318.452 448.784 318.679 449.154C318.906 449.517 319.207 449.799 319.582 449.997C319.957 450.191 320.361 450.287 320.793 450.287C320.957 450.287 321.108 450.273 321.244 450.245C321.386 450.216 321.531 450.174 321.679 450.117L321.849 450.628C321.679 450.691 321.511 450.739 321.347 450.773C321.182 450.813 320.997 450.833 320.793 450.833C320.259 450.833 319.761 450.71 319.301 450.466C318.847 450.222 318.48 449.875 318.202 449.426C317.929 448.978 317.793 448.446 317.793 447.833V434.367ZM333.773 446.299V437.503H334.318V450.594H333.773V448.514H333.705C333.398 449.196 332.892 449.742 332.188 450.151C331.489 450.56 330.688 450.764 329.784 450.764C328.909 450.764 328.136 450.574 327.466 450.193C326.795 449.813 326.27 449.287 325.889 448.617C325.509 447.946 325.318 447.174 325.318 446.299V437.503H325.864V446.299C325.864 447.458 326.227 448.401 326.955 449.128C327.682 449.855 328.625 450.219 329.784 450.219C330.557 450.219 331.241 450.051 331.838 449.716C332.44 449.381 332.912 448.918 333.253 448.327C333.599 447.736 333.773 447.06 333.773 446.299ZM338.959 450.594V437.503H339.504V439.583H339.572C339.879 438.901 340.382 438.355 341.081 437.946C341.786 437.537 342.589 437.333 343.493 437.333C343.561 437.333 343.607 437.333 343.629 437.333C343.652 437.333 343.697 437.333 343.766 437.333V437.878C343.697 437.878 343.652 437.878 343.629 437.878C343.607 437.878 343.561 437.878 343.493 437.878C342.72 437.878 342.033 438.046 341.43 438.381C340.834 438.716 340.362 439.179 340.016 439.77C339.675 440.361 339.504 441.037 339.504 441.799V450.594H338.959ZM351.274 450.867C350.132 450.867 349.132 450.568 348.274 449.972C347.422 449.375 346.76 448.566 346.288 447.543C345.817 446.52 345.581 445.367 345.581 444.083C345.581 442.799 345.817 441.645 346.288 440.622C346.766 439.6 347.413 438.79 348.232 438.193C349.05 437.597 349.973 437.299 351.001 437.299C351.763 437.299 352.467 437.46 353.115 437.784C353.768 438.108 354.337 438.557 354.82 439.131C355.303 439.705 355.678 440.367 355.945 441.117C356.217 441.861 356.354 442.656 356.354 443.503V444.049H345.854V443.503H355.808C355.808 442.452 355.592 441.5 355.161 440.648C354.729 439.79 354.149 439.108 353.422 438.603C352.695 438.097 351.888 437.844 351.001 437.844C350.104 437.844 349.291 438.111 348.564 438.645C347.837 439.179 347.254 439.906 346.817 440.827C346.379 441.747 346.149 442.787 346.126 443.946V444.014C346.126 445.156 346.325 446.208 346.723 447.168C347.126 448.122 347.712 448.887 348.479 449.46C349.246 450.034 350.178 450.321 351.274 450.321C352.081 450.321 352.757 450.179 353.303 449.895C353.854 449.611 354.294 449.284 354.624 448.915C354.959 448.546 355.206 448.23 355.365 447.969L355.808 448.276C355.615 448.605 355.325 448.972 354.939 449.375C354.553 449.779 354.058 450.128 353.456 450.424C352.854 450.719 352.126 450.867 351.274 450.867ZM371.603 450.867C370.575 450.867 369.651 450.571 368.833 449.98C368.015 449.384 367.367 448.574 366.89 447.551C366.418 446.523 366.183 445.367 366.183 444.083C366.183 442.793 366.418 441.637 366.89 440.614C367.367 439.591 368.015 438.784 368.833 438.193C369.651 437.597 370.575 437.299 371.603 437.299C372.631 437.299 373.552 437.597 374.364 438.193C375.183 438.79 375.83 439.6 376.308 440.622C376.785 441.645 377.023 442.799 377.023 444.083C377.023 445.367 376.785 446.523 376.308 447.551C375.836 448.574 375.191 449.384 374.373 449.98C373.555 450.571 372.631 450.867 371.603 450.867ZM371.603 450.321C372.529 450.321 373.359 450.049 374.092 449.503C374.83 448.958 375.413 448.213 375.839 447.27C376.265 446.327 376.478 445.264 376.478 444.083C376.478 442.901 376.262 441.841 375.83 440.904C375.404 439.96 374.825 439.216 374.092 438.671C373.359 438.12 372.529 437.844 371.603 437.844C370.683 437.844 369.853 438.12 369.114 438.671C368.381 439.216 367.799 439.96 367.367 440.904C366.941 441.841 366.728 442.901 366.728 444.083C366.728 445.264 366.941 446.327 367.367 447.27C367.793 448.213 368.373 448.958 369.106 449.503C369.844 450.049 370.677 450.321 371.603 450.321ZM385.365 437.503V438.049H380.183V437.503H385.365ZM381.99 450.594V435.355C381.99 434.742 382.126 434.21 382.399 433.762C382.678 433.313 383.044 432.966 383.499 432.722C383.959 432.478 384.456 432.355 384.99 432.355C385.195 432.355 385.379 432.372 385.544 432.406C385.709 432.441 385.871 432.486 386.03 432.543L385.859 433.054C385.717 433.009 385.578 432.972 385.442 432.943C385.305 432.915 385.155 432.901 384.99 432.901C384.337 432.901 383.763 433.12 383.268 433.557C382.78 433.995 382.536 434.594 382.536 435.355L382.518 450.594H381.99ZM396.157 455.503C395.935 455.503 395.7 455.472 395.45 455.409C395.2 455.353 394.947 455.27 394.691 455.162L394.896 454.685C395.458 454.924 395.969 455.009 396.43 454.941C396.896 454.878 397.305 454.665 397.657 454.301C398.015 453.938 398.31 453.429 398.543 452.776L399.242 450.833L394.469 437.503H395.049L399.481 449.912H399.549L403.981 437.503H404.56L399.055 452.98C398.862 453.526 398.62 453.986 398.33 454.361C398.04 454.736 397.711 455.02 397.342 455.213C396.978 455.406 396.583 455.503 396.157 455.503ZM412.267 450.867C411.239 450.867 410.315 450.571 409.497 449.98C408.679 449.384 408.031 448.574 407.554 447.551C407.082 446.523 406.847 445.367 406.847 444.083C406.847 442.793 407.082 441.637 407.554 440.614C408.031 439.591 408.679 438.784 409.497 438.193C410.315 437.597 411.239 437.299 412.267 437.299C413.295 437.299 414.216 437.597 415.028 438.193C415.847 438.79 416.494 439.6 416.972 440.622C417.449 441.645 417.688 442.799 417.688 444.083C417.688 445.367 417.449 446.523 416.972 447.551C416.5 448.574 415.855 449.384 415.037 449.98C414.219 450.571 413.295 450.867 412.267 450.867ZM412.267 450.321C413.193 450.321 414.023 450.049 414.756 449.503C415.494 448.958 416.077 448.213 416.503 447.27C416.929 446.327 417.142 445.264 417.142 444.083C417.142 442.901 416.926 441.841 416.494 440.904C416.068 439.96 415.489 439.216 414.756 438.671C414.023 438.12 413.193 437.844 412.267 437.844C411.347 437.844 410.517 438.12 409.778 438.671C409.045 439.216 408.463 439.96 408.031 440.904C407.605 441.841 407.392 442.901 407.392 444.083C407.392 445.264 407.605 446.327 408.031 447.27C408.457 448.213 409.037 448.958 409.77 449.503C410.509 450.049 411.341 450.321 412.267 450.321ZM429.984 446.299V437.503H430.529V450.594H429.984V448.514H429.915C429.609 449.196 429.103 449.742 428.398 450.151C427.7 450.56 426.898 450.764 425.995 450.764C425.12 450.764 424.347 450.574 423.677 450.193C423.006 449.813 422.481 449.287 422.1 448.617C421.719 447.946 421.529 447.174 421.529 446.299V437.503H422.075V446.299C422.075 447.458 422.438 448.401 423.165 449.128C423.893 449.855 424.836 450.219 425.995 450.219C426.768 450.219 427.452 450.051 428.049 449.716C428.651 449.381 429.123 448.918 429.464 448.327C429.81 447.736 429.984 447.06 429.984 446.299ZM435.17 450.594V437.503H435.715V439.583H435.783C436.09 438.901 436.593 438.355 437.292 437.946C437.996 437.537 438.8 437.333 439.704 437.333C439.772 437.333 439.817 437.333 439.84 437.333C439.863 437.333 439.908 437.333 439.977 437.333V437.878C439.908 437.878 439.863 437.878 439.84 437.878C439.817 437.878 439.772 437.878 439.704 437.878C438.931 437.878 438.244 438.046 437.641 438.381C437.045 438.716 436.573 439.179 436.227 439.77C435.886 440.361 435.715 441.037 435.715 441.799V450.594H435.17ZM453.986 450.867C452.952 450.867 452.057 450.571 451.301 449.98C450.545 449.384 449.963 448.574 449.554 447.551C449.145 446.529 448.94 445.372 448.94 444.083C448.94 442.799 449.148 441.645 449.562 440.622C449.977 439.6 450.563 438.79 451.318 438.193C452.074 437.597 452.963 437.299 453.986 437.299C454.679 437.299 455.318 437.443 455.903 437.733C456.489 438.017 456.997 438.426 457.429 438.96C457.861 439.489 458.19 440.117 458.418 440.844H458.486V433.139H459.031V450.594H458.486V447.321H458.418C458.179 448.043 457.847 448.671 457.42 449.205C456.994 449.733 456.489 450.142 455.903 450.432C455.324 450.722 454.685 450.867 453.986 450.867ZM453.986 450.321C454.912 450.321 455.71 450.049 456.381 449.503C457.057 448.952 457.577 448.208 457.94 447.27C458.304 446.327 458.486 445.264 458.486 444.083C458.486 442.901 458.301 441.841 457.932 440.904C457.568 439.96 457.048 439.216 456.372 438.671C455.702 438.12 454.906 437.844 453.986 437.844C453.065 437.844 452.267 438.12 451.591 438.671C450.92 439.216 450.401 439.96 450.031 440.904C449.668 441.841 449.486 442.901 449.486 444.083C449.486 445.264 449.668 446.327 450.031 447.27C450.395 448.208 450.912 448.952 451.582 449.503C452.259 450.049 453.06 450.321 453.986 450.321ZM468.705 450.867C467.676 450.867 466.753 450.571 465.935 449.98C465.116 449.384 464.469 448.574 463.991 447.551C463.52 446.523 463.284 445.367 463.284 444.083C463.284 442.793 463.52 441.637 463.991 440.614C464.469 439.591 465.116 438.784 465.935 438.193C466.753 437.597 467.676 437.299 468.705 437.299C469.733 437.299 470.653 437.597 471.466 438.193C472.284 438.79 472.932 439.6 473.409 440.622C473.886 441.645 474.125 442.799 474.125 444.083C474.125 445.367 473.886 446.523 473.409 447.551C472.938 448.574 472.293 449.384 471.474 449.98C470.656 450.571 469.733 450.867 468.705 450.867ZM468.705 450.321C469.631 450.321 470.46 450.049 471.193 449.503C471.932 448.958 472.514 448.213 472.94 447.27C473.366 446.327 473.58 445.264 473.58 444.083C473.58 442.901 473.364 441.841 472.932 440.904C472.506 439.96 471.926 439.216 471.193 438.671C470.46 438.12 469.631 437.844 468.705 437.844C467.784 437.844 466.955 438.12 466.216 438.671C465.483 439.216 464.901 439.96 464.469 440.904C464.043 441.841 463.83 442.901 463.83 444.083C463.83 445.264 464.043 446.327 464.469 447.27C464.895 448.213 465.474 448.958 466.207 449.503C466.946 450.049 467.778 450.321 468.705 450.321ZM482.671 450.867C481.614 450.867 480.671 450.571 479.842 449.98C479.018 449.384 478.367 448.574 477.89 447.551C477.418 446.529 477.183 445.372 477.183 444.083C477.183 442.804 477.418 441.654 477.89 440.631C478.362 439.603 479.009 438.79 479.833 438.193C480.663 437.597 481.609 437.299 482.671 437.299C483.455 437.299 484.174 437.469 484.827 437.81C485.487 438.145 486.038 438.617 486.481 439.225C486.924 439.827 487.211 440.526 487.342 441.321H486.762C486.586 440.293 486.117 439.458 485.356 438.816C484.6 438.168 483.705 437.844 482.671 437.844C481.734 437.844 480.89 438.117 480.14 438.662C479.396 439.202 478.808 439.943 478.376 440.887C477.944 441.824 477.728 442.889 477.728 444.083C477.728 445.242 477.935 446.293 478.35 447.236C478.771 448.179 479.353 448.929 480.097 449.486C480.842 450.043 481.7 450.321 482.671 450.321C483.37 450.321 484.012 450.176 484.597 449.887C485.183 449.591 485.668 449.176 486.055 448.642C486.447 448.108 486.694 447.486 486.796 446.776H487.376C487.251 447.6 486.967 448.318 486.523 448.932C486.08 449.546 485.526 450.023 484.862 450.364C484.197 450.699 483.467 450.867 482.671 450.867ZM499.687 446.299V437.503H500.232V450.594H499.687V448.514H499.619C499.312 449.196 498.806 449.742 498.102 450.151C497.403 450.56 496.602 450.764 495.698 450.764C494.823 450.764 494.05 450.574 493.38 450.193C492.71 449.813 492.184 449.287 491.803 448.617C491.423 447.946 491.232 447.174 491.232 446.299V437.503H491.778V446.299C491.778 447.458 492.141 448.401 492.869 449.128C493.596 449.855 494.539 450.219 495.698 450.219C496.471 450.219 497.156 450.051 497.752 449.716C498.354 449.381 498.826 448.918 499.167 448.327C499.513 447.736 499.687 447.06 499.687 446.299ZM504.873 450.594V437.503H505.418V439.446H505.487C505.725 438.81 506.151 438.299 506.765 437.912C507.384 437.526 508.129 437.333 508.998 437.333C509.987 437.333 510.773 437.577 511.359 438.066C511.95 438.554 512.356 439.208 512.577 440.026H512.646C512.862 439.208 513.299 438.554 513.958 438.066C514.617 437.577 515.441 437.333 516.43 437.333C517.742 437.333 518.711 437.75 519.336 438.585C519.967 439.415 520.282 440.486 520.282 441.799V450.594H519.737V441.799C519.737 440.639 519.475 439.696 518.952 438.969C518.43 438.242 517.589 437.878 516.43 437.878C515.271 437.878 514.384 438.247 513.771 438.986C513.157 439.719 512.85 440.656 512.85 441.799V450.594H512.305V441.799C512.305 440.639 512.043 439.696 511.521 438.969C510.998 438.242 510.157 437.878 508.998 437.878C508.225 437.878 507.572 438.046 507.038 438.381C506.509 438.716 506.106 439.179 505.827 439.77C505.555 440.361 505.418 441.037 505.418 441.799V450.594H504.873ZM529.821 450.867C528.679 450.867 527.679 450.568 526.821 449.972C525.969 449.375 525.307 448.566 524.835 447.543C524.364 446.52 524.128 445.367 524.128 444.083C524.128 442.799 524.364 441.645 524.835 440.622C525.313 439.6 525.96 438.79 526.778 438.193C527.597 437.597 528.52 437.299 529.548 437.299C530.31 437.299 531.014 437.46 531.662 437.784C532.315 438.108 532.884 438.557 533.366 439.131C533.849 439.705 534.224 440.367 534.491 441.117C534.764 441.861 534.901 442.656 534.901 443.503V444.049H524.401V443.503H534.355C534.355 442.452 534.139 441.5 533.707 440.648C533.276 439.79 532.696 439.108 531.969 438.603C531.241 438.097 530.435 437.844 529.548 437.844C528.651 437.844 527.838 438.111 527.111 438.645C526.384 439.179 525.801 439.906 525.364 440.827C524.926 441.747 524.696 442.787 524.673 443.946V444.014C524.673 445.156 524.872 446.208 525.27 447.168C525.673 448.122 526.259 448.887 527.026 449.46C527.793 450.034 528.724 450.321 529.821 450.321C530.628 450.321 531.304 450.179 531.849 449.895C532.401 449.611 532.841 449.284 533.17 448.915C533.506 448.546 533.753 448.23 533.912 447.969L534.355 448.276C534.162 448.605 533.872 448.972 533.486 449.375C533.099 449.779 532.605 450.128 532.003 450.424C531.401 450.719 530.673 450.867 529.821 450.867ZM539.309 441.799V450.594H538.763V437.503H539.309V439.583H539.377C539.684 438.901 540.187 438.355 540.886 437.946C541.59 437.537 542.394 437.333 543.298 437.333C544.173 437.333 544.945 437.523 545.616 437.904C546.286 438.284 546.812 438.81 547.192 439.48C547.573 440.151 547.763 440.924 547.763 441.799V450.594H547.218V441.799C547.218 440.639 546.854 439.696 546.127 438.969C545.4 438.242 544.457 437.878 543.298 437.878C542.525 437.878 541.837 438.046 541.235 438.381C540.638 438.716 540.167 439.179 539.82 439.77C539.479 440.361 539.309 441.037 539.309 441.799ZM556.495 437.503V438.049H551.313V437.503H556.495ZM553.222 434.367H553.768V447.833C553.768 448.344 553.881 448.784 554.109 449.154C554.336 449.517 554.637 449.799 555.012 449.997C555.387 450.191 555.79 450.287 556.222 450.287C556.387 450.287 556.538 450.273 556.674 450.245C556.816 450.216 556.961 450.174 557.109 450.117L557.279 450.628C557.109 450.691 556.941 450.739 556.776 450.773C556.612 450.813 556.427 450.833 556.222 450.833C555.688 450.833 555.191 450.71 554.731 450.466C554.276 450.222 553.91 449.875 553.631 449.426C553.359 448.978 553.222 448.446 553.222 447.833V434.367Z" fill="#3E3E3E"/>
<g opacity="0.2">
<path d="M87.919 172.506C99.5887 172.506 109.049 163.045 109.049 151.376C109.049 139.706 99.5887 130.246 87.919 130.246C76.2492 130.246 66.7891 139.706 66.7891 151.376C66.7891 163.045 76.2492 172.506 87.919 172.506Z" stroke="#263238" stroke-linecap="round" stroke-linejoin="round"/>
<path d="M451.144 91.2043C460.258 89.8771 471.498 94.1054 472.591 104.406C473.577 113.697 467.211 123.199 461.574 130.023C456.253 136.424 448.912 143.647 440.808 146.466C431.564 149.626 428.593 140.053 434.277 133.875C445.612 121.543 472.415 115.435 486.521 125.877C502.412 137.622 491.677 162.51 476.843 169.98C472.015 172.412 467.763 169.334 471.24 164.237C473.871 160.373 478.886 158.599 483.279 157.8C492.041 156.203 505.689 158.153 509.001 167.995" stroke="#263238" stroke-linecap="round" stroke-linejoin="round"/>
<path d="M431.963 99.2968C436.31 96.3325 441.055 93.9994 446.057 92.3671" stroke="#263238" stroke-linecap="round" stroke-linejoin="round"/>
<path d="M423.014 106.203C424.494 104.841 426.056 103.572 427.653 102.362" stroke="#263238" stroke-linecap="round" stroke-linejoin="round"/>
<path d="M276.877 14.2958L280.647 10.3728L234.676 14.8008L260.915 26.0411" stroke="#263238" stroke-linecap="round" stroke-linejoin="round"/>
<path d="M263.029 26.9455L280.647 34.486L270.605 20.8261L275.397 15.8344" stroke="#263238" stroke-linecap="round" stroke-linejoin="round"/>
<path d="M362.643 16.3629V1" stroke="#263238" stroke-linecap="round" stroke-linejoin="round"/>
<path d="M362.643 27.662V20.9906" stroke="#263238" stroke-linecap="round" stroke-linejoin="round"/>
<path d="M379.004 29.7879L390.056 6.5791" stroke="#263238" stroke-linecap="round" stroke-linejoin="round"/>
<path d="M410.117 30.3751L415.215 26.4521" stroke="#263238" stroke-linecap="round" stroke-linejoin="round"/>
<path d="M392.652 43.8705L405.878 33.6873" stroke="#263238" stroke-linecap="round" stroke-linejoin="round"/>
<path d="M37.0259 261.629L13.5 255.498L17.2233 287.598L54.3856 266.163L39.1049 262.181" stroke="#263238" stroke-linecap="round" stroke-linejoin="round"/>
<path d="M497.973 249.861L524 258.846" stroke="#263238" stroke-linecap="round" stroke-linejoin="round"/>
<path d="M483.902 378.895C484.955 380.047 486.233 380.97 487.658 381.607C489.083 382.243 490.623 382.579 492.184 382.594C493.744 382.608 495.291 382.301 496.727 381.691C498.164 381.081 499.459 380.182 500.533 379.05C501.606 377.917 502.435 376.575 502.967 375.108C503.499 373.641 503.723 372.081 503.625 370.523C503.527 368.966 503.109 367.445 502.397 366.056C501.686 364.668 500.695 363.441 499.488 362.451" stroke="#263238" stroke-linecap="round" stroke-linejoin="round"/>
<path d="M497.479 361.112C495.268 359.945 492.733 359.54 490.268 359.96C487.804 360.38 485.546 361.602 483.847 363.435C482.147 365.269 481.1 367.612 480.867 370.101C480.635 372.591 481.231 375.087 482.562 377.204" stroke="#263238" stroke-linecap="round" stroke-linejoin="round"/>
<path d="M54.808 335.766L44.707 361.852" stroke="#263238" stroke-linecap="round" stroke-linejoin="round"/>
<path d="M58.1088 327.239L56.6406 331.033" stroke="#263238" stroke-linecap="round" stroke-linejoin="round"/>
<path d="M136.721 178.19L164.616 194.329" stroke="#263238" stroke-linecap="round" stroke-linejoin="round"/>
<path d="M105.807 81.5966L83.1738 96.243" stroke="#263238" stroke-linecap="round" stroke-linejoin="round"/>
<path d="M113.922 76.3699L110.398 78.6132" stroke="#263238" stroke-linecap="round" stroke-linejoin="round"/>
<path d="M503.551 90.9224V100.788L510.986 98.8505L503.551 90.9224Z" stroke="#263238" stroke-linecap="round" stroke-linejoin="round"/>
</g>
</svg>
